<svg width="236" height="46" viewBox="0 0 236 46" fill="none" xmlns="http://www.w3.org/2000/svg">
<g clip-path="url(#clip0_45_5)">
<path d="M7.89216 2C7.70608 2.00135 7.528 2.07277 7.39641 2.19887C7.26483 2.32496 7.19028 2.49561 7.18888 2.67393V5.38497C7.18817 5.56463 7.26178 5.73729 7.3936 5.86504C7.52541 5.9928 7.70469 6.06529 7.89216 6.06664H9.30943V8.77768H0.816543C0.629065 8.77768 0.449226 8.84889 0.316408 8.97568C0.18359 9.10248 0.108619 9.27454 0.107912 9.45419V14.2024C0.107209 15.449 0.362924 16.6835 0.860438 17.8354C1.35795 18.9872 2.08751 20.0339 3.00739 20.9153C3.92728 21.7968 5.01945 22.4959 6.22148 22.9726C7.4235 23.4494 8.7118 23.6945 10.0127 23.6938H10.1919C10.8251 25.0796 11.7731 26.3126 12.9666 27.3029C14.1601 28.2932 15.5691 29.0159 17.091 29.4183V34.5407H14.9651C13.0184 34.5407 11.4326 36.0678 11.4326 37.9333V39.2914C11.434 39.4697 11.5086 39.6404 11.6402 39.7665C11.7718 39.8926 11.9498 39.964 12.1359 39.9653H27.6991C27.7922 39.9657 27.8844 39.9485 27.9705 39.9147C28.0566 39.8809 28.1349 39.8311 28.201 39.7683C28.267 39.7055 28.3195 39.6308 28.3554 39.5485C28.3914 39.4663 28.41 39.3781 28.4104 39.2889V37.9333C28.4104 36.0678 26.8166 34.5407 24.8699 34.5407H22.7494V29.4183C24.2704 29.0154 25.6784 28.2925 26.871 27.3022C28.0636 26.3119 29.0106 25.0792 29.6432 23.6938H29.825C31.1259 23.6941 32.4141 23.4488 33.616 22.9717C34.8179 22.4946 35.9099 21.7952 36.8295 20.9135C37.7492 20.0317 38.4784 18.985 38.9756 17.833C39.4728 16.681 39.7282 15.4464 39.7271 14.1998V9.45419C39.7257 9.27587 39.6512 9.10522 39.5196 8.97912C39.388 8.85303 39.2099 8.7816 39.0238 8.78026H30.5309V6.06664H31.9482C32.0415 6.06664 32.1339 6.04892 32.22 6.01464C32.3062 5.98035 32.3844 5.93017 32.4502 5.86684C32.5161 5.80351 32.5682 5.7283 32.6037 5.64561C32.6391 5.56293 32.6572 5.47436 32.6568 5.38497V2.67393C32.6554 2.49428 32.5798 2.32244 32.4465 2.19613C32.3131 2.06982 32.133 1.99932 31.9455 2H7.89216ZM8.60347 3.35552H31.2423V4.71104H8.60347V3.35552ZM10.7213 6.06664H29.119V19.6246C29.119 24.5189 25.0277 28.4394 19.9202 28.4394C14.8127 28.4394 10.7213 24.5189 10.7213 19.6246V6.06664ZM19.9309 10.1307C19.7975 10.1296 19.6665 10.1646 19.553 10.2317C19.4395 10.2988 19.348 10.3952 19.2891 10.5099L17.7809 13.4388L14.4062 13.9103C14.2744 13.9273 14.1502 13.9795 14.0478 14.061C13.9455 14.1425 13.8692 14.25 13.8276 14.3711C13.786 14.4922 13.7809 14.6221 13.8127 14.7459C13.8446 14.8697 13.9122 14.9824 14.0078 15.0711L16.4519 17.3465L15.8796 20.5701C15.8578 20.6942 15.8724 20.8218 15.9218 20.9385C15.9712 21.0552 16.0535 21.1563 16.1595 21.2307C16.2654 21.3052 16.3909 21.35 16.5219 21.36C16.6529 21.37 16.7842 21.345 16.9011 21.2877L19.9202 19.7655L22.9419 21.2877C23.059 21.3464 23.191 21.3726 23.3228 21.3632C23.4547 21.3538 23.5812 21.3093 23.688 21.2346C23.7948 21.16 23.8777 21.0582 23.9274 20.9408C23.977 20.8233 23.9913 20.6949 23.9687 20.5701L23.3885 17.3465L25.8326 15.0711C25.928 14.9829 25.9957 14.8709 26.028 14.7476C26.0602 14.6244 26.0558 14.495 26.0151 14.3741C25.9744 14.2532 25.8992 14.1456 25.7979 14.0636C25.6966 13.9816 25.5734 13.9285 25.4422 13.9103L22.0675 13.444L20.5566 10.5099C20.4989 10.3975 20.41 10.3026 20.2995 10.2357C20.1891 10.1688 20.0615 10.1325 19.9309 10.1307ZM30.5336 10.1307H38.3152V14.1998C38.324 16.3062 37.4757 18.3329 35.9504 19.8496C34.425 21.3663 32.3428 22.2535 30.1459 22.3229C30.2716 21.877 30.3705 21.4209 30.4347 20.9519C32.199 20.8069 33.8424 20.0326 35.0397 18.7824C36.237 17.5321 36.9011 15.8968 36.9006 14.1998V12.1678C36.901 12.0786 36.883 11.9903 36.8477 11.9078C36.8124 11.8253 36.7605 11.7502 36.6949 11.6869C36.6294 11.6236 36.5515 11.5733 36.4656 11.5388C36.3798 11.5044 36.2877 11.4866 36.1947 11.4862H30.5336V10.1307ZM1.52518 10.1332H9.30676V11.4913H3.6484C3.46138 11.492 3.28223 11.5635 3.14999 11.6902C3.01775 11.817 2.94314 11.9886 2.94244 12.1678V14.1998C2.9426 15.8966 3.6069 17.5316 4.80408 18.7817C6.00126 20.0319 7.64423 20.8063 9.40837 20.9519C9.47255 21.4183 9.56882 21.8744 9.69717 22.3203C7.50022 22.2516 5.41772 21.3651 3.89188 19.8489C2.36604 18.3326 1.51705 16.3062 1.52518 14.1998V10.1332ZM19.9202 12.342L20.9604 14.3613C21.0117 14.4597 21.0872 14.5447 21.1803 14.609C21.2735 14.6733 21.3816 14.7149 21.4952 14.7303L23.8163 15.0557L22.1343 16.6265C22.052 16.7036 21.9904 16.7986 21.955 16.9035C21.9196 17.0084 21.9114 17.12 21.9311 17.2287L22.3295 19.4452L20.2491 18.3997C20.1476 18.3488 20.0348 18.3222 19.9202 18.3222C19.8056 18.3222 19.6928 18.3488 19.5913 18.3997L17.5135 19.4452L17.9093 17.2287C17.929 17.12 17.9208 17.0084 17.8853 16.9035C17.8499 16.7986 17.7884 16.7036 17.706 16.6265L16.0294 15.0557L18.3478 14.7303C18.4615 14.7149 18.5696 14.6733 18.6627 14.609C18.7559 14.5447 18.8314 14.4597 18.8826 14.3613L19.9202 12.342ZM30.5336 12.8443H35.4833V14.1998C35.4913 15.5226 34.9913 16.802 34.0786 17.7943C33.1658 18.7866 31.9041 19.4225 30.5336 19.581V12.8443ZM4.35435 12.8443H9.30676V19.5784C7.93701 19.4195 6.67597 18.7838 5.76339 17.7921C4.8508 16.8005 4.3503 15.522 4.35703 14.1998L4.35435 12.8443ZM18.5056 29.695C18.9709 29.754 19.4415 29.795 19.9202 29.795C20.4015 29.795 20.8722 29.754 21.3375 29.6925V34.5381H18.5056V29.695ZM14.9678 35.8962H24.8726C26.0599 35.8962 26.9958 36.793 26.9958 37.9333V38.6072H12.8499V37.9333C12.8499 36.7956 13.7805 35.8962 14.9678 35.8962Z" fill="#EBFF00"/>
<path d="M54.9865 30.126C53.8665 30.126 52.8305 29.944 51.8785 29.58C50.9405 29.202 50.1215 28.677 49.4215 28.005C48.7355 27.333 48.1965 26.542 47.8045 25.632C47.4265 24.722 47.2375 23.728 47.2375 22.65C47.2375 21.572 47.4265 20.578 47.8045 19.668C48.1965 18.758 48.7425 17.967 49.4425 17.295C50.1425 16.623 50.9615 16.105 51.8995 15.741C52.8515 15.363 53.8875 15.174 55.0075 15.174C56.1275 15.174 57.1495 15.349 58.0735 15.699C59.0115 16.049 59.8095 16.581 60.4675 17.295L59.5015 18.282C58.8855 17.666 58.2065 17.225 57.4645 16.959C56.7225 16.693 55.9245 16.56 55.0705 16.56C54.1605 16.56 53.3205 16.714 52.5505 17.022C51.7945 17.316 51.1295 17.743 50.5555 18.303C49.9955 18.849 49.5545 19.493 49.2325 20.235C48.9245 20.963 48.7705 21.768 48.7705 22.65C48.7705 23.518 48.9245 24.323 49.2325 25.065C49.5545 25.807 49.9955 26.458 50.5555 27.018C51.1295 27.564 51.7945 27.991 52.5505 28.299C53.3205 28.593 54.1535 28.74 55.0495 28.74C55.8895 28.74 56.6805 28.614 57.4225 28.362C58.1785 28.11 58.8715 27.683 59.5015 27.081L60.3835 28.257C59.6835 28.873 58.8645 29.342 57.9265 29.664C56.9885 29.972 56.0085 30.126 54.9865 30.126ZM58.8925 28.068V22.65H60.3835V28.257L58.8925 28.068ZM71.3757 30V27.564L71.3127 27.165V23.091C71.3127 22.153 71.0467 21.432 70.5147 20.928C69.9967 20.424 69.2197 20.172 68.1837 20.172C67.4697 20.172 66.7907 20.291 66.1467 20.529C65.5027 20.767 64.9567 21.082 64.5087 21.474L63.8367 20.361C64.3967 19.885 65.0687 19.521 65.8527 19.269C66.6367 19.003 67.4627 18.87 68.3307 18.87C69.7587 18.87 70.8577 19.227 71.6277 19.941C72.4117 20.641 72.8037 21.712 72.8037 23.154V30H71.3757ZM67.5747 30.105C66.7487 30.105 66.0277 29.972 65.4117 29.706C64.8097 29.426 64.3477 29.048 64.0257 28.572C63.7037 28.082 63.5427 27.522 63.5427 26.892C63.5427 26.318 63.6757 25.8 63.9417 25.338C64.2217 24.862 64.6697 24.484 65.2857 24.204C65.9157 23.91 66.7557 23.763 67.8057 23.763H71.6067V24.876H67.8477C66.7837 24.876 66.0417 25.065 65.6217 25.443C65.2157 25.821 65.0127 26.29 65.0127 26.85C65.0127 27.48 65.2577 27.984 65.7477 28.362C66.2377 28.74 66.9237 28.929 67.8057 28.929C68.6457 28.929 69.3667 28.74 69.9687 28.362C70.5847 27.97 71.0327 27.41 71.3127 26.682L71.6487 27.711C71.3687 28.439 70.8787 29.02 70.1787 29.454C69.4927 29.888 68.6247 30.105 67.5747 30.105ZM76.8534 30V18.975H78.3444V30H76.8534ZM77.6094 16.539C77.3014 16.539 77.0424 16.434 76.8324 16.224C76.6224 16.014 76.5174 15.762 76.5174 15.468C76.5174 15.174 76.6224 14.929 76.8324 14.733C77.0424 14.523 77.3014 14.418 77.6094 14.418C77.9174 14.418 78.1764 14.516 78.3864 14.712C78.5964 14.908 78.7014 15.153 78.7014 15.447C78.7014 15.755 78.5964 16.014 78.3864 16.224C78.1904 16.434 77.9314 16.539 77.6094 16.539ZM88.1211 18.87C89.0171 18.87 89.8011 19.045 90.4731 19.395C91.1591 19.731 91.6911 20.249 92.0691 20.949C92.4611 21.649 92.6571 22.531 92.6571 23.595V30H91.1661V23.742C91.1661 22.58 90.8721 21.705 90.2841 21.117C89.7101 20.515 88.8981 20.214 87.8481 20.214C87.0641 20.214 86.3781 20.375 85.7901 20.697C85.2161 21.005 84.7681 21.46 84.4461 22.062C84.1381 22.65 83.9841 23.364 83.9841 24.204V30H82.4931V18.975H83.9211V21.999L83.6901 21.432C84.0401 20.634 84.6001 20.011 85.3701 19.563C86.1401 19.101 87.0571 18.87 88.1211 18.87ZM103.882 22.419H111.652V23.763H103.882V22.419ZM104.05 30H102.496V15.3H112.576V16.644H104.05V30ZM115.265 30V18.975H116.693V21.978L116.546 21.453C116.854 20.613 117.372 19.976 118.1 19.542C118.828 19.094 119.731 18.87 120.809 18.87V20.319C120.753 20.319 120.697 20.319 120.641 20.319C120.585 20.305 120.529 20.298 120.473 20.298C119.311 20.298 118.401 20.655 117.743 21.369C117.085 22.069 116.756 23.07 116.756 24.372V30H115.265ZM128.11 30.105C126.962 30.105 125.954 29.867 125.086 29.391C124.218 28.901 123.539 28.236 123.049 27.396C122.559 26.542 122.314 25.569 122.314 24.477C122.314 23.385 122.545 22.419 123.007 21.579C123.483 20.739 124.127 20.081 124.939 19.605C125.765 19.115 126.689 18.87 127.711 18.87C128.747 18.87 129.664 19.108 130.462 19.584C131.274 20.046 131.911 20.704 132.373 21.558C132.835 22.398 133.066 23.371 133.066 24.477C133.066 24.547 133.059 24.624 133.045 24.708C133.045 24.778 133.045 24.855 133.045 24.939H123.448V23.826H132.247L131.659 24.267C131.659 23.469 131.484 22.762 131.134 22.146C130.798 21.516 130.336 21.026 129.748 20.676C129.16 20.326 128.481 20.151 127.711 20.151C126.955 20.151 126.276 20.326 125.674 20.676C125.072 21.026 124.603 21.516 124.267 22.146C123.931 22.776 123.763 23.497 123.763 24.309V24.54C123.763 25.38 123.945 26.122 124.309 26.766C124.687 27.396 125.205 27.893 125.863 28.257C126.535 28.607 127.298 28.782 128.152 28.782C128.824 28.782 129.447 28.663 130.021 28.425C130.609 28.187 131.113 27.823 131.533 27.333L132.373 28.299C131.883 28.887 131.267 29.335 130.525 29.643C129.797 29.951 128.992 30.105 128.11 30.105ZM140.783 30.105C139.635 30.105 138.627 29.867 137.759 29.391C136.891 28.901 136.212 28.236 135.722 27.396C135.232 26.542 134.987 25.569 134.987 24.477C134.987 23.385 135.218 22.419 135.68 21.579C136.156 20.739 136.8 20.081 137.612 19.605C138.438 19.115 139.362 18.87 140.384 18.87C141.42 18.87 142.337 19.108 143.135 19.584C143.947 20.046 144.584 20.704 145.046 21.558C145.508 22.398 145.739 23.371 145.739 24.477C145.739 24.547 145.732 24.624 145.718 24.708C145.718 24.778 145.718 24.855 145.718 24.939H136.121V23.826H144.92L144.332 24.267C144.332 23.469 144.157 22.762 143.807 22.146C143.471 21.516 143.009 21.026 142.421 20.676C141.833 20.326 141.154 20.151 140.384 20.151C139.628 20.151 138.949 20.326 138.347 20.676C137.745 21.026 137.276 21.516 136.94 22.146C136.604 22.776 136.436 23.497 136.436 24.309V24.54C136.436 25.38 136.618 26.122 136.982 26.766C137.36 27.396 137.878 27.893 138.536 28.257C139.208 28.607 139.971 28.782 140.825 28.782C141.497 28.782 142.12 28.663 142.694 28.425C143.282 28.187 143.786 27.823 144.206 27.333L145.046 28.299C144.556 28.887 143.94 29.335 143.198 29.643C142.47 29.951 141.665 30.105 140.783 30.105ZM152.233 30L158.953 15.3H160.486L167.206 30H165.568L159.394 16.203H160.024L153.85 30H152.233ZM154.879 26.073L155.341 24.813H163.888L164.35 26.073H154.879ZM171.016 30L166.858 18.975H168.286L172.066 29.202H171.415L175.3 18.975H176.581L180.424 29.202H179.773L183.616 18.975H184.981L180.802 30H179.395L175.699 20.382H176.14L172.423 30H171.016ZM193.807 30V27.564L193.744 27.165V23.091C193.744 22.153 193.478 21.432 192.946 20.928C192.428 20.424 191.651 20.172 190.615 20.172C189.901 20.172 189.222 20.291 188.578 20.529C187.934 20.767 187.388 21.082 186.94 21.474L186.268 20.361C186.828 19.885 187.5 19.521 188.284 19.269C189.068 19.003 189.894 18.87 190.762 18.87C192.19 18.87 193.289 19.227 194.059 19.941C194.843 20.641 195.235 21.712 195.235 23.154V30H193.807ZM190.006 30.105C189.18 30.105 188.459 29.972 187.843 29.706C187.241 29.426 186.779 29.048 186.457 28.572C186.135 28.082 185.974 27.522 185.974 26.892C185.974 26.318 186.107 25.8 186.373 25.338C186.653 24.862 187.101 24.484 187.717 24.204C188.347 23.91 189.187 23.763 190.237 23.763H194.038V24.876H190.279C189.215 24.876 188.473 25.065 188.053 25.443C187.647 25.821 187.444 26.29 187.444 26.85C187.444 27.48 187.689 27.984 188.179 28.362C188.669 28.74 189.355 28.929 190.237 28.929C191.077 28.929 191.798 28.74 192.4 28.362C193.016 27.97 193.464 27.41 193.744 26.682L194.08 27.711C193.8 28.439 193.31 29.02 192.61 29.454C191.924 29.888 191.056 30.105 190.006 30.105ZM199.285 30V18.975H200.713V21.978L200.566 21.453C200.874 20.613 201.392 19.976 202.12 19.542C202.848 19.094 203.751 18.87 204.829 18.87V20.319C204.773 20.319 204.717 20.319 204.661 20.319C204.605 20.305 204.549 20.298 204.493 20.298C203.331 20.298 202.421 20.655 201.763 21.369C201.105 22.069 200.776 23.07 200.776 24.372V30H199.285ZM211.836 30.105C210.786 30.105 209.841 29.867 209.001 29.391C208.175 28.915 207.524 28.257 207.048 27.417C206.572 26.563 206.334 25.583 206.334 24.477C206.334 23.357 206.572 22.377 207.048 21.537C207.524 20.697 208.175 20.046 209.001 19.584C209.841 19.108 210.786 18.87 211.836 18.87C212.802 18.87 213.663 19.087 214.419 19.521C215.189 19.955 215.798 20.592 216.246 21.432C216.708 22.258 216.939 23.273 216.939 24.477C216.939 25.667 216.715 26.682 216.267 27.522C215.819 28.362 215.21 29.006 214.44 29.454C213.684 29.888 212.816 30.105 211.836 30.105ZM211.941 28.782C212.725 28.782 213.425 28.607 214.041 28.257C214.671 27.893 215.161 27.389 215.511 26.745C215.875 26.087 216.057 25.331 216.057 24.477C216.057 23.609 215.875 22.853 215.511 22.209C215.161 21.565 214.671 21.068 214.041 20.718C213.425 20.354 212.725 20.172 211.941 20.172C211.171 20.172 210.478 20.354 209.862 20.718C209.246 21.068 208.756 21.565 208.392 22.209C208.028 22.853 207.846 23.609 207.846 24.477C207.846 25.331 208.028 26.087 208.392 26.745C208.756 27.389 209.246 27.893 209.862 28.257C210.478 28.607 211.171 28.782 211.941 28.782ZM216.099 30V26.682L216.246 24.456L216.036 22.23V14.418H217.527V30H216.099ZM224.641 30.105C223.731 30.105 222.87 29.979 222.058 29.727C221.246 29.461 220.609 29.132 220.147 28.74L220.819 27.564C221.267 27.9 221.841 28.194 222.541 28.446C223.241 28.684 223.976 28.803 224.746 28.803C225.796 28.803 226.552 28.642 227.014 28.32C227.476 27.984 227.707 27.543 227.707 26.997C227.707 26.591 227.574 26.276 227.308 26.052C227.056 25.814 226.72 25.639 226.3 25.527C225.88 25.401 225.411 25.296 224.893 25.212C224.375 25.128 223.857 25.03 223.339 24.918C222.835 24.806 222.373 24.645 221.953 24.435C221.533 24.211 221.19 23.91 220.924 23.532C220.672 23.154 220.546 22.65 220.546 22.02C220.546 21.418 220.714 20.879 221.05 20.403C221.386 19.927 221.876 19.556 222.52 19.29C223.178 19.01 223.976 18.87 224.914 18.87C225.628 18.87 226.342 18.968 227.056 19.164C227.77 19.346 228.358 19.591 228.82 19.899L228.169 21.096C227.679 20.76 227.154 20.522 226.594 20.382C226.034 20.228 225.474 20.151 224.914 20.151C223.92 20.151 223.185 20.326 222.709 20.676C222.247 21.012 222.016 21.446 222.016 21.978C222.016 22.398 222.142 22.727 222.394 22.965C222.66 23.203 223.003 23.392 223.423 23.532C223.857 23.658 224.326 23.763 224.83 23.847C225.348 23.931 225.859 24.036 226.363 24.162C226.881 24.274 227.35 24.435 227.77 24.645C228.204 24.841 228.547 25.128 228.799 25.506C229.065 25.87 229.198 26.353 229.198 26.955C229.198 27.599 229.016 28.159 228.652 28.635C228.302 29.097 227.784 29.461 227.098 29.727C226.426 29.979 225.607 30.105 224.641 30.105Z" fill="#EBFF00"/>
</g>
<defs>
<clipPath id="clip0_45_5">
<rect width="236" height="46" fill="white"/>
</clipPath>
</defs>
</svg>
