<svg width="101" height="101" viewBox="0 0 101 101" fill="none" xmlns="http://www.w3.org/2000/svg">
<path d="M96.4254 54.5928C95.7203 63.4535 92.4865 71.9257 87.1081 79.0026C81.7297 86.0795 74.4328 91.4638 66.0844 94.5158C57.736 97.5677 48.687 98.1591 40.0124 96.2195C31.3378 94.28 23.4023 89.8911 17.1487 83.5743C10.895 77.2575 6.5861 69.2783 4.73384 60.5846C2.88157 51.891 3.56382 42.8483 6.69952 34.531C9.83523 26.2137 15.2926 18.9714 22.4232 13.6644C29.5539 8.35736 38.058 5.20881 46.9254 4.59277" stroke="white" stroke-width="5" stroke-linecap="round" stroke-linejoin="round"/>
<path d="M70.0614 58.6921C68.7715 62.012 66.6744 64.9581 63.9598 67.2639C61.2451 69.5697 57.9985 71.1625 54.5136 71.8982C51.0287 72.6339 47.4153 72.4894 44.0003 71.4776C40.5853 70.4658 37.4763 68.6188 34.9546 66.1035C32.4328 63.5882 30.5778 60.484 29.5572 57.0716C28.5367 53.6592 28.3828 50.0463 29.1096 46.5595C29.8363 43.0727 31.4207 39.822 33.7195 37.1014C36.0183 34.3809 38.959 32.2762 42.2757 30.9778M50.1328 50.9064L67.9899 33.0492M67.9899 33.0492L82.2757 36.6206L96.5614 22.3349L82.2757 18.7635L78.7042 4.47778L64.4185 18.7635L67.9899 33.0492Z" stroke="white" stroke-width="5" stroke-linecap="round" stroke-linejoin="round"/>
</svg>
