<svg width="83" height="89" viewBox="0 0 83 89" fill="none" xmlns="http://www.w3.org/2000/svg">
<g clip-path="url(#clip0_79_93)">
<path d="M42.5355 39.6592H31.0009C29.5493 39.6592 28.3727 38.5418 28.3727 37.1636V26.0959C28.3727 24.7179 29.5493 23.6003 31.0009 23.6003C32.4525 23.6003 33.6291 24.7177 33.6291 26.0959V34.6682H42.5356C43.9869 34.6682 45.1639 35.7856 45.1639 37.1638C45.1637 38.5416 43.9871 39.6592 42.5355 39.6592Z" fill="white"/>
<path d="M36.7771 9.49527H24.9823C22.9552 9.49527 21.2963 7.92044 21.2963 5.99531C21.2963 4.07054 22.9548 2.49536 24.9823 2.49536H36.7771C38.8044 2.49536 40.4631 4.07019 40.4631 5.99531C40.4631 7.92026 38.8044 9.49527 36.7771 9.49527Z" fill="black"/>
<path d="M36.7771 11.9909H24.9823C21.5009 11.9909 18.6685 9.30141 18.6685 5.9957C18.6685 2.68947 21.5009 0 24.9823 0H36.7771C40.2585 0 43.0909 2.68947 43.0909 5.99535C43.0911 9.30124 40.2585 11.9909 36.7771 11.9909ZM24.9823 4.99097C24.4088 4.99097 23.9247 5.45117 23.9247 5.99535C23.9247 6.53954 24.409 6.99956 24.9823 6.99956H36.7771C37.3506 6.99956 37.8347 6.53971 37.8347 5.99535C37.8347 5.45117 37.3506 4.99097 36.7771 4.99097H24.9823Z" fill="white"/>
<path d="M57.9433 85.9826C70.3999 85.9826 80.4979 76.3942 80.4979 64.5663C80.4979 52.7383 70.3999 43.1499 57.9433 43.1499C45.4867 43.1499 35.3886 52.7383 35.3886 64.5663C35.3886 76.3942 45.4867 85.9826 57.9433 85.9826Z" fill="black"/>
<path d="M57.9442 88.4795C44.0579 88.4795 32.7604 77.7521 32.7604 64.5664C32.7604 51.3807 44.0581 40.6536 57.9442 40.6536C71.8307 40.6536 83.1283 51.3807 83.1283 64.5664C83.1283 77.7521 71.8307 88.4795 57.9442 88.4795ZM57.9442 45.6444C46.956 45.6444 38.0167 54.1329 38.0167 64.5662C38.0167 75 46.956 83.4882 57.9442 83.4882C68.9326 83.4882 77.8719 74.9997 77.8719 64.566C77.8721 54.1327 68.9328 45.6444 57.9442 45.6444Z" fill="white"/>
<path d="M24.284 65.5991C24.0803 65.5991 23.8734 65.5766 23.6668 65.5294C17.0753 64.0228 11.1032 60.408 6.85142 55.3498C2.53155 50.2105 0.152496 43.752 0.152496 37.1636C0.152496 21.0757 13.9367 7.9873 30.8799 7.9873C38.195 7.9873 45.282 10.4697 50.8352 14.9779C56.3253 19.4349 60.0008 25.5966 61.1843 32.3276C61.4232 33.687 60.4563 34.973 59.0247 35.1999C57.5953 35.4263 56.2389 34.5089 55.9998 33.1494C53.9448 21.4614 43.3799 12.9783 30.8799 12.9783C16.8352 12.9783 5.40874 23.8279 5.40874 37.1636C5.40874 48.3858 13.4224 58.0546 24.8966 60.6769C26.3079 60.9995 27.1764 62.3471 26.8366 63.6872C26.5471 64.8307 25.4706 65.5991 24.284 65.5991Z" fill="white"/>
<path d="M57.0481 73.9468C53.2756 73.8272 50.1952 71.9766 50.1952 70.0663C50.1952 69.0516 51.1381 67.5588 52.3329 67.5588C53.6529 67.5588 54.7218 69.3201 57.0481 69.7079V64.8723C54.1561 63.8275 50.7608 62.544 50.7608 58.7231C50.7608 54.9322 53.7159 53.1116 57.0481 52.6639V51.8278C57.0481 51.4098 57.5511 51.022 58.2429 51.022C58.84 51.022 59.4373 51.4099 59.4373 51.8278V52.574C61.3863 52.6336 65.0645 53.1113 65.0645 55.1708C65.0645 55.9767 64.4986 57.6187 63.1155 57.6187C62.0781 57.6187 61.4808 56.6638 59.4373 56.5143V60.8724C62.2981 61.8872 65.6299 63.29 65.6299 67.3198C65.6299 71.0215 63.1153 73.2601 59.4373 73.8271V74.6927C59.4373 75.1107 58.8402 75.4985 58.2429 75.4985C57.5511 75.4985 57.0481 75.1105 57.0481 74.6927V73.9468ZM57.3624 60.1564V56.6047C55.9477 56.8732 55.3506 57.5596 55.3506 58.2761C55.3506 59.1415 56.1679 59.6788 57.3624 60.1564ZM59.123 65.6785V69.6782C60.1919 69.4394 61.0407 68.8724 61.0407 67.7977C61.0405 66.8126 60.2547 66.186 59.123 65.6785Z" fill="white"/>
<path d="M49.4941 19.6744C48.8213 19.6744 48.149 19.4306 47.6357 18.9434C46.6095 17.9689 46.6095 16.3891 47.6357 15.4141L52.212 11.0684C53.2381 10.0941 54.9021 10.0941 55.929 11.0684C56.9552 12.0429 56.9552 13.6227 55.929 14.5977L51.3527 18.9434C50.8394 19.4306 50.1666 19.6744 49.4941 19.6744Z" fill="white"/>
</g>
<defs>
<clipPath id="clip0_79_93">
<rect width="83" height="89" fill="white"/>
</clipPath>
</defs>
</svg>
