<svg width="71" height="77" viewBox="0 0 71 77" fill="none" xmlns="http://www.w3.org/2000/svg">
<g clip-path="url(#clip0_1_31)">
<path fill-rule="evenodd" clip-rule="evenodd" d="M45.5266 40.2323C44.9366 38.5639 43.8439 37.1195 42.399 36.0979C40.9541 35.0763 39.228 34.5277 37.4584 34.5276V32.3887H33.1805V34.5276C30.9113 34.5276 28.7351 35.4291 27.1306 37.0336C25.526 38.6381 24.6246 40.8144 24.6246 43.0835C24.6246 45.3527 25.526 47.5289 27.1306 49.1335C28.7351 50.738 30.9113 51.6394 33.1805 51.6394V60.1953C31.3196 60.1953 29.7346 59.0082 29.1443 57.3441C29.0567 57.0718 28.9154 56.8199 28.7287 56.6032C28.5421 56.3865 28.3138 56.2094 28.0576 56.0825C27.8013 55.9555 27.5222 55.8812 27.2367 55.864C26.9512 55.8468 26.6652 55.8871 26.3955 55.9823C26.1258 56.0776 25.878 56.226 25.6667 56.4187C25.4554 56.6114 25.2849 56.8446 25.1652 57.1044C25.0456 57.3641 24.9793 57.6453 24.9702 57.9311C24.9611 58.217 25.0094 58.5018 25.1123 58.7686C25.7023 60.437 26.795 61.8814 28.2399 62.903C29.6848 63.9246 31.4109 64.4732 33.1805 64.4733V66.6122H37.4584V64.4733C39.7276 64.4733 41.9038 63.5718 43.5084 61.9673C45.1129 60.3627 46.0143 58.1865 46.0143 55.9174C46.0143 53.6482 45.1129 51.472 43.5084 49.8674C41.9038 48.2629 39.7276 47.3615 37.4584 47.3615V38.8056C38.3431 38.8054 39.2062 39.0794 39.9286 39.5901C40.6511 40.1007 41.1975 40.8228 41.4925 41.6568C41.6814 42.1918 42.0751 42.6298 42.587 42.8745C42.8404 42.9956 43.1152 43.0657 43.3958 43.0806C43.6763 43.0956 43.957 43.0552 44.2219 42.9616C44.4867 42.8681 44.7306 42.7233 44.9395 42.5355C45.1485 42.3477 45.3184 42.1206 45.4395 41.8672C45.5607 41.6137 45.6307 41.3389 45.6457 41.0584C45.6606 40.7779 45.6202 40.4972 45.5266 40.2323ZM33.1805 38.8056C32.0459 38.8056 30.9578 39.2563 30.1555 40.0586C29.3533 40.8608 28.9025 41.949 28.9025 43.0835C28.9025 44.2181 29.3533 45.3062 30.1555 46.1085C30.9578 46.9108 32.0459 47.3615 33.1805 47.3615V38.8056ZM37.4584 60.1953C38.593 60.1953 39.6811 59.7446 40.4834 58.9423C41.2857 58.1401 41.7364 57.0519 41.7364 55.9174C41.7364 54.7828 41.2857 53.6947 40.4834 52.8924C39.6811 52.0901 38.593 51.6394 37.4584 51.6394V60.1953Z" fill="white"/>
<path fill-rule="evenodd" clip-rule="evenodd" d="M12.1192 5.91032C17.3683 3.34142 25.9798 0.304077 35.4041 0.304077C44.6316 0.304077 53.0164 3.21522 58.2376 5.7499L58.5328 5.89321C60.1071 6.6718 61.3776 7.4076 62.2717 8.00438L54.3703 19.5548C72.5858 38.1767 86.656 77.3007 35.4041 77.3007C-15.8478 77.3007 -2.15626 38.8869 16.2175 19.5548L8.36748 8.00438C8.97281 7.60867 9.7407 7.14879 10.6562 6.6611C11.1096 6.41726 11.5973 6.16486 12.1192 5.91032ZM49.2924 19.403L55.6174 10.1562C49.7352 10.5797 42.7365 11.9615 35.9987 13.9122C31.186 15.3026 25.8386 15.0908 20.8869 14.1775C19.6391 13.9461 18.3998 13.6707 17.1715 13.3518L21.2783 19.3987C30.0802 22.5323 40.4884 22.5323 49.2924 19.403ZM18.8078 23.0413C29.107 27.0198 41.4852 27.0198 51.7843 23.0371C56.0834 27.5689 59.6797 32.7189 62.4535 38.3158C65.3454 44.215 66.9197 50.1122 66.663 55.1944C66.4149 60.099 64.4855 64.2893 60.0793 67.4036C55.4869 70.6484 47.7631 73.0227 35.402 73.0227C23.028 73.0227 15.2678 70.6891 10.6327 67.4806C6.19428 64.4069 4.24568 60.2723 3.96975 55.4339C3.68099 50.4074 5.22105 44.5402 8.10225 38.6002C10.8508 32.9362 14.686 27.484 18.8078 23.0413ZM16.348 8.68029C18.0592 9.18937 19.8473 9.63213 21.6612 9.96795C26.26 10.815 30.8716 10.939 34.8073 9.79897C39.3937 8.46285 44.0585 7.41203 48.7748 6.65255C44.8391 5.46756 40.236 4.58202 35.402 4.58202C28.0332 4.58202 21.1607 6.63757 16.348 8.68029Z" fill="white"/>
</g>
<defs>
<clipPath id="clip0_1_31">
<rect width="71" height="77" fill="white"/>
</clipPath>
</defs>
</svg>
