<svg width="88" height="40" viewBox="0 0 88 40" fill="none" xmlns="http://www.w3.org/2000/svg">
<g clip-path="url(#clip0_46_3)">
<path d="M41.58 20.6825V30.4463H38.28V6.29932H46.86C48.95 6.29932 50.93 7.03422 52.47 8.39905C54.01 9.6589 54.78 11.5487 54.78 13.5434C54.78 15.5382 54.01 17.3229 52.47 18.6878C50.93 20.0526 49.06 20.7875 46.86 20.7875L41.58 20.6825ZM41.58 9.23895V17.6379H47.08C48.29 17.6379 49.5 17.218 50.27 16.3781C52.03 14.8033 52.03 12.1786 50.38 10.6038L50.27 10.4988C49.39 9.6589 48.29 9.13396 47.08 9.23895H41.58Z" fill="white"/>
<path d="M62.37 13.4382C64.79 13.4382 66.66 14.0682 68.09 15.328C69.52 16.5878 70.18 18.2676 70.18 20.3674V30.4461H67.1V28.1364H66.99C65.67 30.0262 63.8 30.971 61.6 30.971C59.73 30.971 58.08 30.4461 56.76 29.3962C55.55 28.3464 54.78 26.8766 54.78 25.3018C54.78 23.622 55.44 22.2571 56.76 21.2073C58.08 20.1574 59.95 19.7374 62.15 19.7374C64.13 19.7374 65.67 20.0524 66.88 20.7873V20.0524C66.88 19.0025 66.44 17.9527 65.56 17.3227C64.68 16.5878 63.58 16.1679 62.37 16.1679C60.5 16.1679 59.07 16.9028 58.08 18.3726L55.22 16.6928C56.98 14.4881 59.29 13.4382 62.37 13.4382ZM58.19 25.4067C58.19 26.2466 58.63 26.9815 59.29 27.4015C60.06 27.9264 60.94 28.2414 61.82 28.2414C63.14 28.2414 64.46 27.7164 65.45 26.7716C66.55 25.8267 67.1 24.6718 67.1 23.412C66.11 22.6771 64.68 22.2571 62.81 22.2571C61.49 22.2571 60.39 22.5721 59.51 23.202C58.63 23.7269 58.19 24.4619 58.19 25.4067Z" fill="white"/>
<path d="M88 13.9631L77.11 37.7952H73.81L77.88 29.5012L70.73 14.0681H74.25L79.42 25.9316H79.53L84.59 14.0681H88V13.9631Z" fill="white"/>
<path d="M28.49 18.5827C28.49 17.6378 28.38 16.6929 28.27 15.748H14.52V21.1024H22.33C22 22.7822 21.01 24.357 19.47 25.3019V28.7664H24.2C26.95 26.3517 28.49 22.7822 28.49 18.5827Z" fill="#4285F4"/>
<path d="M14.52 32.1259C18.48 32.1259 21.78 30.8661 24.2 28.7664L19.47 25.3018C18.15 26.1417 16.5 26.6666 14.52 26.6666C10.78 26.6666 7.47998 24.2519 6.37998 20.8923H1.53998V24.4619C4.06998 29.1863 9.01998 32.1259 14.52 32.1259Z" fill="#34A853"/>
<path d="M6.37997 20.8924C5.71997 19.2126 5.71997 17.3228 6.37997 15.5381V11.9685H1.53997C-0.550027 15.853 -0.550027 20.4724 1.53997 24.4619L6.37997 20.8924Z" fill="#FBBC04"/>
<path d="M14.52 9.86877C16.61 9.86877 18.59 10.6037 20.13 11.9685L24.31 7.97901C21.67 5.6693 18.15 4.30447 14.63 4.40946C9.13002 4.40946 4.07002 7.34909 1.65002 12.0735L6.49002 15.6431C7.48002 12.2835 10.78 9.86877 14.52 9.86877Z" fill="#EA4335"/>
</g>
<defs>
<clipPath id="clip0_46_3">
<rect width="88" height="40" fill="white"/>
</clipPath>
</defs>
</svg>
