<svg width="51" height="65" viewBox="0 0 51 65" fill="none" xmlns="http://www.w3.org/2000/svg">
<path d="M25.7 0C12.4272 0 1.6286 10.4136 1.6286 23.2143C1.6286 31.8266 6.6915 39.8371 14.5852 43.8101L14.8244 47.0451C14.8714 47.6845 15.4456 48.1764 16.1108 48.1197C16.7737 48.0744 17.2726 47.5189 17.2256 46.8796L16.9377 42.9871C16.9072 42.5733 16.6492 42.2061 16.2619 42.0259C8.83474 38.554 4.03578 31.1691 4.03578 23.2143C4.03578 11.6944 13.7543 2.32146 25.7 2.32146C37.6457 2.32146 47.3642 11.6944 47.3642 23.2143C47.3642 31.7098 42.1027 39.2931 33.9605 42.536C33.5391 42.7039 33.2524 43.0869 33.2195 43.5256L32.6958 50.592C32.6488 51.2313 33.1477 51.7867 33.8107 51.832C33.84 51.8343 33.8688 51.8355 33.8977 51.8355C34.5236 51.8355 35.0519 51.3684 35.0972 50.7575L35.5684 44.3951C44.2215 40.6466 49.7716 32.4105 49.7716 23.2144C49.7714 10.4136 38.9728 0 25.7 0Z" fill="white"/>
<path d="M32.1923 53.4222L16.5459 49.9401C15.9001 49.7961 15.2519 50.186 15.102 50.8106C14.9527 51.4352 15.3564 52.0585 16.0041 52.2025L31.6505 55.6847C31.7416 55.7051 31.8327 55.7141 31.9226 55.7141C32.4704 55.7141 32.9657 55.3514 33.0945 54.8142C33.2437 54.1896 32.84 53.5661 32.1923 53.4222Z" fill="white"/>
<path d="M32.1923 58.0653L16.5459 54.5831C15.9001 54.4392 15.2519 54.829 15.102 55.4536C14.9527 56.0782 15.3564 56.7016 16.0041 56.8455L31.6505 60.3277C31.7416 60.3482 31.8327 60.3572 31.9226 60.3572C32.4704 60.3572 32.9657 59.9945 33.0945 59.4572C33.2437 58.8327 32.84 58.2093 32.1923 58.0653Z" fill="white"/>
<path d="M32.1923 62.7081L16.5459 59.2259C15.9001 59.0808 15.2519 59.4706 15.102 60.0964C14.9527 60.721 15.3564 61.3443 16.0041 61.4883L31.6505 64.9705C31.7416 64.9909 31.8327 64.9999 31.9226 64.9999C32.4704 64.9999 32.9657 64.6372 33.0945 64.1C33.2437 63.4754 32.84 62.8519 32.1923 62.7081Z" fill="white"/>
</svg>
