<svg width="194" height="48" viewBox="0 0 194 48" fill="none" xmlns="http://www.w3.org/2000/svg">
<g clip-path="url(#clip0_45_7)">
<path d="M3.78124 42.75C2.85068 42.75 2.05693 42.4222 1.39999 41.7667C0.744435 41.1111 0.416656 40.3174 0.416656 39.3854V21.1146C0.416656 20.184 0.744435 19.3903 1.39999 18.7333C2.05555 18.0778 2.84929 17.75 3.78124 17.75H6.66666V13.5833C6.66666 11.2625 7.47499 9.29306 9.09165 7.675C10.7083 6.05695 12.6778 5.24861 15 5.25C17.3208 5.25 19.2903 6.05834 20.9083 7.675C22.5264 9.29167 23.3347 11.2611 23.3333 13.5833V17.75H26.2187C27.1493 17.75 27.943 18.0778 28.6 18.7333C29.2555 19.3889 29.5833 20.1826 29.5833 21.1146V39.3854C29.5833 40.316 29.2555 41.1097 28.6 41.7667C27.9444 42.4222 27.1507 42.75 26.2187 42.75H3.78124ZM3.78124 40.6667H26.2187C26.5924 40.6667 26.8993 40.5465 27.1396 40.3062C27.3798 40.066 27.5 39.759 27.5 39.3854V21.1146C27.5 20.741 27.3798 20.434 27.1396 20.1938C26.8993 19.9535 26.5924 19.8333 26.2187 19.8333H3.78124C3.40763 19.8333 3.10068 19.9535 2.86041 20.1938C2.62013 20.434 2.49999 20.741 2.49999 21.1146V39.3854C2.49999 39.759 2.62013 40.066 2.86041 40.3062C3.10068 40.5465 3.40763 40.6667 3.78124 40.6667ZM15 33.375C15.8792 33.375 16.6194 33.0736 17.2208 32.4708C17.8236 31.8694 18.125 31.1292 18.125 30.25C18.125 29.3708 17.8236 28.6306 17.2208 28.0292C16.6194 27.4264 15.8792 27.125 15 27.125C14.1208 27.125 13.3805 27.4264 12.7792 28.0292C12.1764 28.6306 11.875 29.3708 11.875 30.25C11.875 31.1292 12.1764 31.8694 12.7792 32.4708C13.3805 33.0736 14.1208 33.375 15 33.375ZM8.74999 17.75H21.25V13.5833C21.25 11.8472 20.6423 10.3715 19.4271 9.15625C18.2118 7.94097 16.7361 7.33333 15 7.33333C13.2639 7.33333 11.7882 7.94097 10.5729 9.15625C9.35763 10.3715 8.74999 11.8472 8.74999 13.5833V17.75Z" fill="#00C2FF"/>
<path d="M37.4052 25L43.8052 11H45.2652L51.6652 25H50.1052L44.2252 11.86H44.8252L38.9452 25H37.4052ZM39.9252 21.26L40.3652 20.06H48.5052L48.9452 21.26H39.9252ZM53.6812 25V10.16H55.1012V25H53.6812ZM59.0523 25V10.16H60.4723V25H59.0523ZM69.9577 25V11H75.6577C77.1511 11 78.4577 11.3 79.5777 11.9C80.7111 12.4867 81.5911 13.3067 82.2177 14.36C82.8444 15.4133 83.1577 16.6267 83.1577 18C83.1577 19.3733 82.8444 20.5867 82.2177 21.64C81.5911 22.6933 80.7111 23.52 79.5777 24.12C78.4577 24.7067 77.1511 25 75.6577 25H69.9577ZM71.4377 23.72H75.5777C76.8177 23.72 77.8911 23.48 78.7977 23C79.7177 22.5067 80.4311 21.8333 80.9377 20.98C81.4444 20.1133 81.6977 19.12 81.6977 18C81.6977 16.8667 81.4444 15.8733 80.9377 15.02C80.4311 14.1667 79.7177 13.5 78.7977 13.02C77.8911 12.5267 76.8177 12.28 75.5777 12.28H71.4377V23.72ZM92.7612 25V22.68L92.7012 22.3V18.42C92.7012 17.5267 92.4478 16.84 91.9412 16.36C91.4478 15.88 90.7078 15.64 89.7212 15.64C89.0412 15.64 88.3945 15.7533 87.7812 15.98C87.1678 16.2067 86.6478 16.5067 86.2212 16.88L85.5812 15.82C86.1145 15.3667 86.7545 15.02 87.5012 14.78C88.2478 14.5267 89.0345 14.4 89.8612 14.4C91.2212 14.4 92.2678 14.74 93.0012 15.42C93.7478 16.0867 94.1212 17.1067 94.1212 18.48V25H92.7612ZM89.1412 25.1C88.3545 25.1 87.6678 24.9733 87.0812 24.72C86.5078 24.4533 86.0678 24.0933 85.7612 23.64C85.4545 23.1733 85.3012 22.64 85.3012 22.04C85.3012 21.4933 85.4278 21 85.6812 20.56C85.9478 20.1067 86.3745 19.7467 86.9612 19.48C87.5612 19.2 88.3612 19.06 89.3612 19.06H92.9812V20.12H89.4012C88.3878 20.12 87.6812 20.3 87.2812 20.66C86.8945 21.02 86.7012 21.4667 86.7012 22C86.7012 22.6 86.9345 23.08 87.4012 23.44C87.8678 23.8 88.5212 23.98 89.3612 23.98C90.1612 23.98 90.8478 23.8 91.4212 23.44C92.0078 23.0667 92.4345 22.5333 92.7012 21.84L93.0212 22.82C92.7545 23.5133 92.2878 24.0667 91.6212 24.48C90.9678 24.8933 90.1412 25.1 89.1412 25.1ZM101.298 25.1C100.311 25.1 99.5514 24.8333 99.018 24.3C98.4847 23.7667 98.218 23.0133 98.218 22.04V12.18H99.638V21.96C99.638 22.5733 99.7914 23.0467 100.098 23.38C100.418 23.7133 100.871 23.88 101.458 23.88C102.085 23.88 102.605 23.7 103.018 23.34L103.518 24.36C103.238 24.6133 102.898 24.8 102.498 24.92C102.111 25.04 101.711 25.1 101.298 25.1ZM96.338 15.68V14.5H102.838V15.68H96.338ZM112.683 25V22.68L112.623 22.3V18.42C112.623 17.5267 112.37 16.84 111.863 16.36C111.37 15.88 110.63 15.64 109.643 15.64C108.963 15.64 108.316 15.7533 107.703 15.98C107.09 16.2067 106.57 16.5067 106.143 16.88L105.503 15.82C106.036 15.3667 106.676 15.02 107.423 14.78C108.17 14.5267 108.956 14.4 109.783 14.4C111.143 14.4 112.19 14.74 112.923 15.42C113.67 16.0867 114.043 17.1067 114.043 18.48V25H112.683ZM109.063 25.1C108.276 25.1 107.59 24.9733 107.003 24.72C106.43 24.4533 105.99 24.0933 105.683 23.64C105.376 23.1733 105.223 22.64 105.223 22.04C105.223 21.4933 105.35 21 105.603 20.56C105.87 20.1067 106.296 19.7467 106.883 19.48C107.483 19.2 108.283 19.06 109.283 19.06H112.903V20.12H109.323C108.31 20.12 107.603 20.3 107.203 20.66C106.816 21.02 106.623 21.4667 106.623 22C106.623 22.6 106.856 23.08 107.323 23.44C107.79 23.8 108.443 23.98 109.283 23.98C110.083 23.98 110.77 23.8 111.343 23.44C111.93 23.0667 112.356 22.5333 112.623 21.84L112.943 22.82C112.676 23.5133 112.21 24.0667 111.543 24.48C110.89 24.8933 110.063 25.1 109.063 25.1ZM123.434 25V11H124.914V23.72H132.754V25H123.434ZM139.035 25.1C138.022 25.1 137.109 24.8733 136.295 24.42C135.495 23.9533 134.862 23.32 134.395 22.52C133.929 21.7067 133.695 20.78 133.695 19.74C133.695 18.6867 133.929 17.76 134.395 16.96C134.862 16.16 135.495 15.5333 136.295 15.08C137.095 14.6267 138.009 14.4 139.035 14.4C140.075 14.4 140.995 14.6267 141.795 15.08C142.609 15.5333 143.242 16.16 143.695 16.96C144.162 17.76 144.395 18.6867 144.395 19.74C144.395 20.78 144.162 21.7067 143.695 22.52C143.242 23.32 142.609 23.9533 141.795 24.42C140.982 24.8733 140.062 25.1 139.035 25.1ZM139.035 23.84C139.795 23.84 140.469 23.6733 141.055 23.34C141.642 22.9933 142.102 22.5133 142.435 21.9C142.782 21.2733 142.955 20.5533 142.955 19.74C142.955 18.9133 142.782 18.1933 142.435 17.58C142.102 16.9667 141.642 16.4933 141.055 16.16C140.469 15.8133 139.802 15.64 139.055 15.64C138.309 15.64 137.642 15.8133 137.055 16.16C136.469 16.4933 136.002 16.9667 135.655 17.58C135.309 18.1933 135.135 18.9133 135.135 19.74C135.135 20.5533 135.309 21.2733 135.655 21.9C136.002 22.5133 136.469 22.9933 137.055 23.34C137.642 23.6733 138.302 23.84 139.035 23.84ZM151.654 25.1C150.614 25.1 149.681 24.8733 148.854 24.42C148.041 23.9533 147.401 23.32 146.934 22.52C146.468 21.7067 146.234 20.78 146.234 19.74C146.234 18.6867 146.468 17.76 146.934 16.96C147.401 16.16 148.041 15.5333 148.854 15.08C149.681 14.6267 150.614 14.4 151.654 14.4C152.548 14.4 153.354 14.5733 154.074 14.92C154.794 15.2667 155.361 15.7867 155.774 16.48L154.714 17.2C154.354 16.6667 153.908 16.2733 153.374 16.02C152.841 15.7667 152.261 15.64 151.634 15.64C150.888 15.64 150.214 15.8133 149.614 16.16C149.014 16.4933 148.541 16.9667 148.194 17.58C147.848 18.1933 147.674 18.9133 147.674 19.74C147.674 20.5667 147.848 21.2867 148.194 21.9C148.541 22.5133 149.014 22.9933 149.614 23.34C150.214 23.6733 150.888 23.84 151.634 23.84C152.261 23.84 152.841 23.7133 153.374 23.46C153.908 23.2067 154.354 22.82 154.714 22.3L155.774 23.02C155.361 23.7 154.794 24.22 154.074 24.58C153.354 24.9267 152.548 25.1 151.654 25.1ZM159.528 22.28L159.568 20.46L166.108 14.5H167.848L163.228 18.92L162.428 19.6L159.528 22.28ZM158.408 25V10.16H159.828V25H158.408ZM166.548 25L162.168 19.54L163.088 18.44L168.288 25H166.548ZM174.45 25.1C173.356 25.1 172.396 24.8733 171.57 24.42C170.743 23.9533 170.096 23.32 169.63 22.52C169.163 21.7067 168.93 20.78 168.93 19.74C168.93 18.7 169.15 17.78 169.59 16.98C170.043 16.18 170.656 15.5533 171.43 15.1C172.216 14.6333 173.096 14.4 174.07 14.4C175.056 14.4 175.93 14.6267 176.69 15.08C177.463 15.52 178.07 16.1467 178.51 16.96C178.95 17.76 179.17 18.6867 179.17 19.74C179.17 19.8067 179.163 19.88 179.15 19.96C179.15 20.0267 179.15 20.1 179.15 20.18H170.01V19.12H178.39L177.83 19.54C177.83 18.78 177.663 18.1067 177.33 17.52C177.01 16.92 176.57 16.4533 176.01 16.12C175.45 15.7867 174.803 15.62 174.07 15.62C173.35 15.62 172.703 15.7867 172.13 16.12C171.556 16.4533 171.11 16.92 170.79 17.52C170.47 18.12 170.31 18.8067 170.31 19.58V19.8C170.31 20.6 170.483 21.3067 170.83 21.92C171.19 22.52 171.683 22.9933 172.31 23.34C172.95 23.6733 173.676 23.84 174.49 23.84C175.13 23.84 175.723 23.7267 176.27 23.5C176.83 23.2733 177.31 22.9267 177.71 22.46L178.51 23.38C178.043 23.94 177.456 24.3667 176.75 24.66C176.056 24.9533 175.29 25.1 174.45 25.1ZM186.24 25.1C185.24 25.1 184.34 24.8733 183.54 24.42C182.753 23.9667 182.133 23.34 181.68 22.54C181.227 21.7267 181 20.7933 181 19.74C181 18.6733 181.227 17.74 181.68 16.94C182.133 16.14 182.753 15.52 183.54 15.08C184.34 14.6267 185.24 14.4 186.24 14.4C187.16 14.4 187.98 14.6067 188.7 15.02C189.433 15.4333 190.013 16.04 190.44 16.84C190.88 17.6267 191.1 18.5933 191.1 19.74C191.1 20.8733 190.887 21.84 190.46 22.64C190.033 23.44 189.453 24.0533 188.72 24.48C188 24.8933 187.173 25.1 186.24 25.1ZM186.34 23.84C187.087 23.84 187.753 23.6733 188.34 23.34C188.94 22.9933 189.407 22.5133 189.74 21.9C190.087 21.2733 190.26 20.5533 190.26 19.74C190.26 18.9133 190.087 18.1933 189.74 17.58C189.407 16.9667 188.94 16.4933 188.34 16.16C187.753 15.8133 187.087 15.64 186.34 15.64C185.607 15.64 184.947 15.8133 184.36 16.16C183.773 16.4933 183.307 16.9667 182.96 17.58C182.613 18.1933 182.44 18.9133 182.44 19.74C182.44 20.5533 182.613 21.2733 182.96 21.9C183.307 22.5133 183.773 22.9933 184.36 23.34C184.947 23.6733 185.607 23.84 186.34 23.84ZM190.3 25V21.84L190.44 19.72L190.24 17.6V10.16H191.66V25H190.3ZM59.7738 35.26H67.1738V36.52H59.7738V35.26ZM59.9338 41.72H68.3538V43H58.4538V29H68.0538V30.28H59.9338V41.72ZM76.8927 32.4C77.7461 32.4 78.4927 32.5667 79.1327 32.9C79.7861 33.22 80.2927 33.7133 80.6527 34.38C81.0261 35.0467 81.2127 35.8867 81.2127 36.9V43H79.7927V37.04C79.7927 35.9333 79.5127 35.1 78.9527 34.54C78.4061 33.9667 77.6327 33.68 76.6327 33.68C75.8861 33.68 75.2327 33.8333 74.6727 34.14C74.1261 34.4333 73.6994 34.8667 73.3927 35.44C73.0994 36 72.9527 36.68 72.9527 37.48V43H71.5327V32.5H72.8927V35.38L72.6727 34.84C73.0061 34.08 73.5394 33.4867 74.2727 33.06C75.0061 32.62 75.8794 32.4 76.8927 32.4ZM89.2284 43.1C88.2284 43.1 87.3284 42.8733 86.5284 42.42C85.7417 41.9667 85.1217 41.34 84.6684 40.54C84.215 39.7267 83.9884 38.7933 83.9884 37.74C83.9884 36.6733 84.215 35.74 84.6684 34.94C85.1217 34.14 85.7417 33.52 86.5284 33.08C87.3284 32.6267 88.2284 32.4 89.2284 32.4C90.1484 32.4 90.9684 32.6067 91.6884 33.02C92.4217 33.4333 93.0017 34.04 93.4284 34.84C93.8684 35.6267 94.0884 36.5933 94.0884 37.74C94.0884 38.8733 93.875 39.84 93.4484 40.64C93.0217 41.44 92.4417 42.0533 91.7084 42.48C90.9884 42.8933 90.1617 43.1 89.2284 43.1ZM89.3284 41.84C90.075 41.84 90.7417 41.6733 91.3284 41.34C91.9284 40.9933 92.395 40.5133 92.7284 39.9C93.075 39.2733 93.2484 38.5533 93.2484 37.74C93.2484 36.9133 93.075 36.1933 92.7284 35.58C92.395 34.9667 91.9284 34.4933 91.3284 34.16C90.7417 33.8133 90.075 33.64 89.3284 33.64C88.595 33.64 87.935 33.8133 87.3484 34.16C86.7617 34.4933 86.295 34.9667 85.9484 35.58C85.6017 36.1933 85.4284 36.9133 85.4284 37.74C85.4284 38.5533 85.6017 39.2733 85.9484 39.9C86.295 40.5133 86.7617 40.9933 87.3484 41.34C87.935 41.6733 88.595 41.84 89.3284 41.84ZM93.2884 43V39.84L93.4284 37.72L93.2284 35.6V28.16H94.6484V43H93.2884ZM97.823 38.2V36.96H103.063V38.2H97.823ZM108.615 43V30.28H103.695V29H115.015V30.28H110.095V43H108.615ZM120.266 43.1C119.253 43.1 118.339 42.8733 117.526 42.42C116.726 41.9533 116.093 41.32 115.626 40.52C115.159 39.7067 114.926 38.78 114.926 37.74C114.926 36.6867 115.159 35.76 115.626 34.96C116.093 34.16 116.726 33.5333 117.526 33.08C118.326 32.6267 119.239 32.4 120.266 32.4C121.306 32.4 122.226 32.6267 123.026 33.08C123.839 33.5333 124.473 34.16 124.926 34.96C125.393 35.76 125.626 36.6867 125.626 37.74C125.626 38.78 125.393 39.7067 124.926 40.52C124.473 41.32 123.839 41.9533 123.026 42.42C122.213 42.8733 121.293 43.1 120.266 43.1ZM120.266 41.84C121.026 41.84 121.699 41.6733 122.286 41.34C122.873 40.9933 123.333 40.5133 123.666 39.9C124.013 39.2733 124.186 38.5533 124.186 37.74C124.186 36.9133 124.013 36.1933 123.666 35.58C123.333 34.9667 122.873 34.4933 122.286 34.16C121.699 33.8133 121.033 33.64 120.286 33.64C119.539 33.64 118.873 33.8133 118.286 34.16C117.699 34.4933 117.233 34.9667 116.886 35.58C116.539 36.1933 116.366 36.9133 116.366 37.74C116.366 38.5533 116.539 39.2733 116.886 39.9C117.233 40.5133 117.699 40.9933 118.286 41.34C118.873 41.6733 119.533 41.84 120.266 41.84ZM127.94 38.2V36.96H133.18V38.2H127.94ZM137.977 35.26H145.377V36.52H137.977V35.26ZM138.137 41.72H146.557V43H136.657V29H146.257V30.28H138.137V41.72ZM155.096 32.4C155.949 32.4 156.696 32.5667 157.336 32.9C157.989 33.22 158.496 33.7133 158.856 34.38C159.229 35.0467 159.416 35.8867 159.416 36.9V43H157.996V37.04C157.996 35.9333 157.716 35.1 157.156 34.54C156.609 33.9667 155.836 33.68 154.836 33.68C154.089 33.68 153.436 33.8333 152.876 34.14C152.329 34.4333 151.903 34.8667 151.596 35.44C151.303 36 151.156 36.68 151.156 37.48V43H149.736V32.5H151.096V35.38L150.876 34.84C151.209 34.08 151.743 33.4867 152.476 33.06C153.209 32.62 154.083 32.4 155.096 32.4ZM167.431 43.1C166.431 43.1 165.531 42.8733 164.731 42.42C163.945 41.9667 163.325 41.34 162.871 40.54C162.418 39.7267 162.191 38.7933 162.191 37.74C162.191 36.6733 162.418 35.74 162.871 34.94C163.325 34.14 163.945 33.52 164.731 33.08C165.531 32.6267 166.431 32.4 167.431 32.4C168.351 32.4 169.171 32.6067 169.891 33.02C170.625 33.4333 171.205 34.04 171.631 34.84C172.071 35.6267 172.291 36.5933 172.291 37.74C172.291 38.8733 172.078 39.84 171.651 40.64C171.225 41.44 170.645 42.0533 169.911 42.48C169.191 42.8933 168.365 43.1 167.431 43.1ZM167.531 41.84C168.278 41.84 168.945 41.6733 169.531 41.34C170.131 40.9933 170.598 40.5133 170.931 39.9C171.278 39.2733 171.451 38.5533 171.451 37.74C171.451 36.9133 171.278 36.1933 170.931 35.58C170.598 34.9667 170.131 34.4933 169.531 34.16C168.945 33.8133 168.278 33.64 167.531 33.64C166.798 33.64 166.138 33.8133 165.551 34.16C164.965 34.4933 164.498 34.9667 164.151 35.58C163.805 36.1933 163.631 36.9133 163.631 37.74C163.631 38.5533 163.805 39.2733 164.151 39.9C164.498 40.5133 164.965 40.9933 165.551 41.34C166.138 41.6733 166.798 41.84 167.531 41.84ZM171.491 43V39.84L171.631 37.72L171.431 35.6V28.16H172.851V43H171.491Z" fill="#00C2FF"/>
</g>
<defs>
<clipPath id="clip0_45_7">
<rect width="194" height="48" fill="white"/>
</clipPath>
</defs>
</svg>
