<svg width="75" height="75" viewBox="0 0 75 75" fill="none" xmlns="http://www.w3.org/2000/svg">
<g clip-path="url(#clip0_1_35)">
<path d="M26.0588 14.3637C22.4338 14.5033 19.1567 15.797 17.4047 17.5512C17.2111 17.7446 16.9813 17.898 16.7285 18.0026C16.4756 18.1073 16.2047 18.1611 15.931 18.161C15.6574 18.1609 15.3864 18.1069 15.1336 18.0021C14.8809 17.8973 14.6512 17.7437 14.4578 17.5501C14.2644 17.3566 14.111 17.1268 14.0063 16.8739C13.9017 16.6211 13.8479 16.3501 13.848 16.0765C13.8481 15.8028 13.9021 15.5319 14.0069 15.2791C14.1117 15.0263 14.2653 14.7967 14.4588 14.6033C17.1609 11.9012 21.5609 10.3678 25.8963 10.1991C30.2609 10.0303 35.0255 11.2241 38.363 14.5616C38.7536 14.9525 38.973 15.4826 38.9728 16.0352C38.9726 16.5879 38.7529 17.1178 38.362 17.5085C37.971 17.8991 37.4409 18.1185 36.8883 18.1183C36.3357 18.1181 35.8057 17.8983 35.4151 17.5074C33.1442 15.2345 29.6567 14.222 26.0588 14.3616" fill="white"/>
<path fill-rule="evenodd" clip-rule="evenodd" d="M44.0507 47.9469C39.1692 52.0778 32.9789 54.3401 26.5841 54.3302C11.6257 54.3302 -0.499268 42.2052 -0.499268 27.2469C-0.499268 12.2886 11.6257 0.163574 26.5841 0.163574C41.5424 0.163574 53.6674 12.2886 53.6674 27.2469C53.6674 33.9032 51.2674 39.9969 47.2841 44.7136L51.8841 43.9136L73.3091 65.3386C74.8987 66.9282 74.8987 69.5052 73.3091 71.0927L70.4299 73.9719C68.8403 75.5615 66.2632 75.5615 64.6757 73.9719L43.2507 52.5469L44.0507 47.9469ZM49.5007 27.2469C49.5007 39.9032 39.2403 50.1636 26.5841 50.1636C13.9278 50.1636 3.6674 39.9032 3.6674 27.2469C3.6674 14.5907 13.9278 4.33024 26.5841 4.33024C39.2403 4.33024 49.5007 14.5907 49.5007 27.2469ZM64.6028 62.524L50.4674 48.3886L48.1341 48.7948L47.7257 51.1302L61.9028 65.3073L64.6028 62.524ZM64.8487 68.2532L67.5528 70.9573L70.2945 68.2157L67.5487 65.4698L64.8487 68.2532Z" fill="white"/>
</g>
<defs>
<clipPath id="clip0_1_35">
<rect width="75" height="75" fill="white"/>
</clipPath>
</defs>
</svg>
