<svg width="48" height="40" viewBox="0 0 48 40" fill="none" xmlns="http://www.w3.org/2000/svg">
<path opacity="0.5" d="M30.546 31.2133C27.8846 31.2136 25.2829 30.5563 23.0699 29.3244C20.8569 28.0926 19.1319 26.3415 18.113 24.2927C17.0942 22.2438 16.8273 19.9892 17.3462 17.814C17.865 15.6387 19.1462 13.6406 21.0277 12.0721C22.9093 10.5037 25.3068 9.4354 27.9169 9.00241C30.527 8.56942 33.2326 8.79115 35.6915 9.63955C38.1504 10.488 40.2522 11.9249 41.7311 13.7688C43.21 15.6126 43.9996 17.7805 44 19.9983V20C43.9963 22.9727 42.5777 25.8228 40.0554 27.925C37.5332 30.0272 34.1133 31.2098 30.546 31.2133Z" fill="#FFD600"/>
<path d="M17.2313 31.3156C14.5699 31.3156 11.9684 30.6579 9.75552 29.4258C7.54269 28.1937 5.818 26.4424 4.79955 24.3934C3.7811 22.3444 3.51463 20.0898 4.03383 17.9146C4.55303 15.7395 5.83459 13.7414 7.71645 12.1732C9.5983 10.605 11.9959 9.53705 14.6061 9.10438C17.2164 8.67171 19.9219 8.89377 22.3807 9.74249C24.8394 10.5912 26.941 12.0284 28.4195 13.8725C29.8981 15.7165 30.6873 17.8845 30.6873 20.1023C30.6836 23.0753 29.2647 25.9256 26.742 28.0279C24.2193 30.1301 20.7989 31.3125 17.2313 31.3156Z" fill="#FF4545"/>
</svg>
