<svg width="215" height="46" viewBox="0 0 215 46" fill="none" xmlns="http://www.w3.org/2000/svg">
<g clip-path="url(#clip0_45_6)">
<path d="M18.125 1.0625L1.96875 7.71875V24.125C1.96875 32.9167 20 41.3125 20 41.3125C20 41.3125 38.0313 32.9167 38.0313 24.125V7.71875L21.875 1.0625C21.2809 0.814951 20.6436 0.6875 20 0.6875C19.3564 0.6875 18.7191 0.814951 18.125 1.0625Z" stroke="#00FF38" stroke-opacity="0.6" stroke-linecap="round" stroke-linejoin="round"/>
<path d="M26.7187 17.5624H20V8.27075L13.4271 22.0416H20.1458V31.3333L26.7187 17.5624Z" stroke="#02FF1B" stroke-opacity="0.6" stroke-linecap="round" stroke-linejoin="round"/>
<path d="M55.6348 27.551C57.7628 27.551 58.8268 26.823 58.8268 25.367C58.8268 24.919 58.7288 24.541 58.5328 24.233C58.3508 23.911 58.0988 23.638 57.7768 23.414C57.4548 23.176 57.0838 22.973 56.6638 22.805C56.2578 22.637 55.8238 22.469 55.3618 22.301C54.8298 22.119 54.3258 21.916 53.8498 21.692C53.3738 21.454 52.9608 21.181 52.6108 20.873C52.2608 20.551 51.9808 20.173 51.7708 19.739C51.5748 19.305 51.4768 18.78 51.4768 18.164C51.4768 16.89 51.9108 15.896 52.7788 15.182C53.6468 14.468 54.8438 14.111 56.3698 14.111C57.2518 14.111 58.0498 14.209 58.7638 14.405C59.4918 14.587 60.0238 14.79 60.3598 15.014L59.7088 16.673C59.4148 16.491 58.9738 16.316 58.3858 16.148C57.8118 15.966 57.1398 15.875 56.3698 15.875C55.9778 15.875 55.6138 15.917 55.2778 16.001C54.9418 16.085 54.6478 16.211 54.3958 16.379C54.1438 16.547 53.9408 16.764 53.7868 17.03C53.6468 17.282 53.5768 17.583 53.5768 17.933C53.5768 18.325 53.6538 18.654 53.8078 18.92C53.9618 19.186 54.1788 19.424 54.4588 19.634C54.7388 19.83 55.0608 20.012 55.4248 20.18C55.8028 20.348 56.2158 20.516 56.6638 20.684C57.2938 20.936 57.8678 21.188 58.3858 21.44C58.9178 21.692 59.3728 21.993 59.7508 22.343C60.1428 22.693 60.4438 23.113 60.6538 23.603C60.8638 24.079 60.9688 24.66 60.9688 25.346C60.9688 26.62 60.4998 27.6 59.5618 28.286C58.6378 28.972 57.3288 29.315 55.6348 29.315C55.0608 29.315 54.5288 29.273 54.0388 29.189C53.5628 29.119 53.1358 29.035 52.7578 28.937C52.3798 28.825 52.0508 28.713 51.7708 28.601C51.5048 28.475 51.2948 28.37 51.1408 28.286L51.7498 26.606C52.0718 26.788 52.5618 26.991 53.2198 27.215C53.8778 27.439 54.6828 27.551 55.6348 27.551ZM70.8855 23.561C70.8855 22.287 70.5705 21.307 69.9405 20.621C69.3105 19.935 68.4705 19.592 67.4205 19.592C66.8325 19.592 66.3705 19.613 66.0345 19.655C65.7125 19.697 65.4535 19.746 65.2575 19.802V26.69C65.4955 26.886 65.8385 27.075 66.2865 27.257C66.7345 27.439 67.2245 27.53 67.7565 27.53C68.3165 27.53 68.7925 27.432 69.1845 27.236C69.5905 27.026 69.9195 26.746 70.1715 26.396C70.4235 26.032 70.6055 25.612 70.7175 25.136C70.8295 24.646 70.8855 24.121 70.8855 23.561ZM72.9225 23.561C72.9225 24.387 72.8105 25.15 72.5865 25.85C72.3765 26.55 72.0615 27.152 71.6415 27.656C71.2215 28.16 70.7035 28.552 70.0875 28.832C69.4855 29.112 68.7925 29.252 68.0085 29.252C67.3785 29.252 66.8185 29.168 66.3285 29C65.8525 28.832 65.4955 28.671 65.2575 28.517V32.885H63.3045V18.416C63.7665 18.304 64.3405 18.185 65.0265 18.059C65.7265 17.919 66.5315 17.849 67.4415 17.849C68.2815 17.849 69.0375 17.982 69.7095 18.248C70.3815 18.514 70.9555 18.892 71.4315 19.382C71.9075 19.872 72.2715 20.474 72.5235 21.188C72.7895 21.888 72.9225 22.679 72.9225 23.561ZM75.0617 23.561C75.0617 22.595 75.2017 21.755 75.4817 21.041C75.7617 20.313 76.1327 19.711 76.5947 19.235C77.0567 18.759 77.5887 18.402 78.1907 18.164C78.7927 17.926 79.4087 17.807 80.0387 17.807C81.5087 17.807 82.6357 18.269 83.4197 19.193C84.2037 20.103 84.5957 21.496 84.5957 23.372C84.5957 23.456 84.5957 23.568 84.5957 23.708C84.5957 23.834 84.5887 23.953 84.5747 24.065H77.0987C77.1827 25.199 77.5117 26.06 78.0857 26.648C78.6597 27.236 79.5557 27.53 80.7737 27.53C81.4597 27.53 82.0337 27.474 82.4957 27.362C82.9717 27.236 83.3287 27.117 83.5667 27.005L83.8397 28.643C83.6017 28.769 83.1817 28.902 82.5797 29.042C81.9917 29.182 81.3197 29.252 80.5637 29.252C79.6117 29.252 78.7857 29.112 78.0857 28.832C77.3997 28.538 76.8327 28.139 76.3847 27.635C75.9367 27.131 75.6007 26.536 75.3767 25.85C75.1667 25.15 75.0617 24.387 75.0617 23.561ZM82.5587 22.49C82.5727 21.608 82.3487 20.887 81.8867 20.327C81.4387 19.753 80.8157 19.466 80.0177 19.466C79.5697 19.466 79.1707 19.557 78.8207 19.739C78.4847 19.907 78.1977 20.131 77.9597 20.411C77.7217 20.691 77.5327 21.013 77.3927 21.377C77.2667 21.741 77.1827 22.112 77.1407 22.49H82.5587ZM86.7922 23.561C86.7922 22.595 86.9322 21.755 87.2122 21.041C87.4922 20.313 87.8632 19.711 88.3252 19.235C88.7872 18.759 89.3192 18.402 89.9212 18.164C90.5232 17.926 91.1392 17.807 91.7692 17.807C93.2392 17.807 94.3662 18.269 95.1502 19.193C95.9342 20.103 96.3262 21.496 96.3262 23.372C96.3262 23.456 96.3262 23.568 96.3262 23.708C96.3262 23.834 96.3192 23.953 96.3052 24.065H88.8292C88.9132 25.199 89.2422 26.06 89.8162 26.648C90.3902 27.236 91.2862 27.53 92.5042 27.53C93.1902 27.53 93.7642 27.474 94.2262 27.362C94.7022 27.236 95.0592 27.117 95.2972 27.005L95.5702 28.643C95.3322 28.769 94.9122 28.902 94.3102 29.042C93.7222 29.182 93.0502 29.252 92.2942 29.252C91.3422 29.252 90.5162 29.112 89.8162 28.832C89.1302 28.538 88.5632 28.139 88.1152 27.635C87.6672 27.131 87.3312 26.536 87.1072 25.85C86.8972 25.15 86.7922 24.387 86.7922 23.561ZM94.2892 22.49C94.3032 21.608 94.0792 20.887 93.6172 20.327C93.1692 19.753 92.5462 19.466 91.7482 19.466C91.3002 19.466 90.9012 19.557 90.5512 19.739C90.2152 19.907 89.9282 20.131 89.6902 20.411C89.4522 20.691 89.2632 21.013 89.1232 21.377C88.9972 21.741 88.9132 22.112 88.8712 22.49H94.2892ZM106.188 20.39C105.95 20.194 105.607 20.005 105.159 19.823C104.711 19.641 104.221 19.55 103.689 19.55C103.129 19.55 102.646 19.655 102.24 19.865C101.848 20.061 101.526 20.341 101.274 20.705C101.022 21.055 100.84 21.475 100.728 21.965C100.616 22.455 100.56 22.98 100.56 23.54C100.56 24.814 100.875 25.801 101.505 26.501C102.135 27.187 102.975 27.53 104.025 27.53C104.557 27.53 104.998 27.509 105.348 27.467C105.712 27.411 105.992 27.355 106.188 27.299V20.39ZM106.188 13.04L108.141 12.704V28.685C107.693 28.811 107.119 28.937 106.419 29.063C105.719 29.189 104.914 29.252 104.004 29.252C103.164 29.252 102.408 29.119 101.736 28.853C101.064 28.587 100.49 28.209 100.014 27.719C99.5377 27.229 99.1667 26.634 98.9007 25.934C98.6487 25.22 98.5227 24.422 98.5227 23.54C98.5227 22.7 98.6277 21.93 98.8377 21.23C99.0617 20.53 99.3837 19.928 99.8037 19.424C100.224 18.92 100.735 18.528 101.337 18.248C101.953 17.968 102.653 17.828 103.437 17.828C104.067 17.828 104.62 17.912 105.096 18.08C105.586 18.248 105.95 18.409 106.188 18.563V13.04ZM115.644 25.136C115.644 24.59 115.728 24.107 115.896 23.687C116.064 23.253 116.288 22.868 116.568 22.532C116.862 22.182 117.198 21.881 117.576 21.629C117.954 21.363 118.346 21.132 118.752 20.936C117.716 19.9 117.198 18.829 117.198 17.723C117.198 17.163 117.289 16.659 117.471 16.211C117.667 15.763 117.926 15.385 118.248 15.077C118.584 14.769 118.976 14.531 119.424 14.363C119.886 14.195 120.39 14.111 120.936 14.111C121.496 14.111 121.993 14.195 122.427 14.363C122.875 14.531 123.246 14.755 123.54 15.035C123.848 15.315 124.079 15.651 124.233 16.043C124.387 16.435 124.464 16.848 124.464 17.282C124.464 17.772 124.38 18.213 124.212 18.605C124.058 18.997 123.841 19.354 123.561 19.676C123.295 19.998 122.987 20.292 122.637 20.558C122.287 20.824 121.916 21.062 121.524 21.272L124.926 24.737C125.402 23.855 125.71 22.875 125.85 21.797L127.467 22.007C127.411 22.581 127.264 23.211 127.026 23.897C126.802 24.569 126.48 25.241 126.06 25.913C126.55 26.445 126.998 26.97 127.404 27.488C127.824 28.006 128.167 28.51 128.433 29H126.375C126.207 28.72 125.997 28.433 125.745 28.139C125.507 27.845 125.255 27.551 124.989 27.257C124.415 27.831 123.75 28.3 122.994 28.664C122.238 29.014 121.37 29.189 120.39 29.189C119.48 29.189 118.724 29.063 118.122 28.811C117.52 28.545 117.03 28.216 116.652 27.824C116.288 27.418 116.029 26.977 115.875 26.501C115.721 26.025 115.644 25.57 115.644 25.136ZM117.597 25.094C117.597 25.346 117.646 25.619 117.744 25.913C117.842 26.207 118.003 26.48 118.227 26.732C118.451 26.97 118.738 27.173 119.088 27.341C119.452 27.495 119.9 27.572 120.432 27.572C121.118 27.572 121.748 27.446 122.322 27.194C122.91 26.942 123.428 26.585 123.876 26.123L119.781 21.986C119.529 22.112 119.27 22.259 119.004 22.427C118.752 22.595 118.521 22.805 118.311 23.057C118.101 23.295 117.926 23.582 117.786 23.918C117.66 24.254 117.597 24.646 117.597 25.094ZM122.7 17.345C122.7 16.869 122.539 16.47 122.217 16.148C121.909 15.812 121.482 15.644 120.936 15.644C120.32 15.644 119.844 15.833 119.508 16.211C119.186 16.575 119.025 17.03 119.025 17.576C119.025 18.486 119.501 19.375 120.453 20.243C120.761 20.089 121.048 19.921 121.314 19.739C121.594 19.557 121.832 19.347 122.028 19.109C122.238 18.871 122.399 18.612 122.511 18.332C122.637 18.038 122.7 17.709 122.7 17.345ZM138.712 27.551C140.84 27.551 141.904 26.823 141.904 25.367C141.904 24.919 141.806 24.541 141.61 24.233C141.428 23.911 141.176 23.638 140.854 23.414C140.532 23.176 140.161 22.973 139.741 22.805C139.335 22.637 138.901 22.469 138.439 22.301C137.907 22.119 137.403 21.916 136.927 21.692C136.451 21.454 136.038 21.181 135.688 20.873C135.338 20.551 135.058 20.173 134.848 19.739C134.652 19.305 134.554 18.78 134.554 18.164C134.554 16.89 134.988 15.896 135.856 15.182C136.724 14.468 137.921 14.111 139.447 14.111C140.329 14.111 141.127 14.209 141.841 14.405C142.569 14.587 143.101 14.79 143.437 15.014L142.786 16.673C142.492 16.491 142.051 16.316 141.463 16.148C140.889 15.966 140.217 15.875 139.447 15.875C139.055 15.875 138.691 15.917 138.355 16.001C138.019 16.085 137.725 16.211 137.473 16.379C137.221 16.547 137.018 16.764 136.864 17.03C136.724 17.282 136.654 17.583 136.654 17.933C136.654 18.325 136.731 18.654 136.885 18.92C137.039 19.186 137.256 19.424 137.536 19.634C137.816 19.83 138.138 20.012 138.502 20.18C138.88 20.348 139.293 20.516 139.741 20.684C140.371 20.936 140.945 21.188 141.463 21.44C141.995 21.692 142.45 21.993 142.828 22.343C143.22 22.693 143.521 23.113 143.731 23.603C143.941 24.079 144.046 24.66 144.046 25.346C144.046 26.62 143.577 27.6 142.639 28.286C141.715 28.972 140.406 29.315 138.712 29.315C138.138 29.315 137.606 29.273 137.116 29.189C136.64 29.119 136.213 29.035 135.835 28.937C135.457 28.825 135.128 28.713 134.848 28.601C134.582 28.475 134.372 28.37 134.218 28.286L134.827 26.606C135.149 26.788 135.639 26.991 136.297 27.215C136.955 27.439 137.76 27.551 138.712 27.551ZM145.773 23.561C145.773 22.595 145.913 21.755 146.193 21.041C146.473 20.313 146.844 19.711 147.306 19.235C147.768 18.759 148.3 18.402 148.902 18.164C149.504 17.926 150.12 17.807 150.75 17.807C152.22 17.807 153.347 18.269 154.131 19.193C154.915 20.103 155.307 21.496 155.307 23.372C155.307 23.456 155.307 23.568 155.307 23.708C155.307 23.834 155.3 23.953 155.286 24.065H147.81C147.894 25.199 148.223 26.06 148.797 26.648C149.371 27.236 150.267 27.53 151.485 27.53C152.171 27.53 152.745 27.474 153.207 27.362C153.683 27.236 154.04 27.117 154.278 27.005L154.551 28.643C154.313 28.769 153.893 28.902 153.291 29.042C152.703 29.182 152.031 29.252 151.275 29.252C150.323 29.252 149.497 29.112 148.797 28.832C148.111 28.538 147.544 28.139 147.096 27.635C146.648 27.131 146.312 26.536 146.088 25.85C145.878 25.15 145.773 24.387 145.773 23.561ZM153.27 22.49C153.284 21.608 153.06 20.887 152.598 20.327C152.15 19.753 151.527 19.466 150.729 19.466C150.281 19.466 149.882 19.557 149.532 19.739C149.196 19.907 148.909 20.131 148.671 20.411C148.433 20.691 148.244 21.013 148.104 21.377C147.978 21.741 147.894 22.112 147.852 22.49H153.27ZM162.858 29.252C161.976 29.252 161.199 29.112 160.527 28.832C159.869 28.552 159.309 28.16 158.847 27.656C158.399 27.152 158.063 26.557 157.839 25.871C157.615 25.171 157.503 24.401 157.503 23.561C157.503 22.721 157.622 21.951 157.86 21.251C158.112 20.551 158.462 19.949 158.91 19.445C159.358 18.927 159.904 18.528 160.548 18.248C161.206 17.954 161.934 17.807 162.732 17.807C163.222 17.807 163.712 17.849 164.202 17.933C164.692 18.017 165.161 18.15 165.609 18.332L165.168 19.991C164.874 19.851 164.531 19.739 164.139 19.655C163.761 19.571 163.355 19.529 162.921 19.529C161.829 19.529 160.989 19.872 160.401 20.558C159.827 21.244 159.54 22.245 159.54 23.561C159.54 24.149 159.603 24.688 159.729 25.178C159.869 25.668 160.079 26.088 160.359 26.438C160.653 26.788 161.024 27.061 161.472 27.257C161.92 27.439 162.466 27.53 163.11 27.53C163.628 27.53 164.097 27.481 164.517 27.383C164.937 27.285 165.266 27.18 165.504 27.068L165.777 28.706C165.665 28.776 165.504 28.846 165.294 28.916C165.084 28.972 164.846 29.021 164.58 29.063C164.314 29.119 164.027 29.161 163.719 29.189C163.425 29.231 163.138 29.252 162.858 29.252ZM176.568 28.685C176.12 28.797 175.525 28.916 174.783 29.042C174.055 29.168 173.208 29.231 172.242 29.231C171.402 29.231 170.695 29.112 170.121 28.874C169.547 28.622 169.085 28.272 168.735 27.824C168.385 27.376 168.133 26.851 167.979 26.249C167.825 25.633 167.748 24.954 167.748 24.212V18.08H169.701V23.792C169.701 25.122 169.911 26.074 170.331 26.648C170.751 27.222 171.458 27.509 172.452 27.509C172.662 27.509 172.879 27.502 173.103 27.488C173.327 27.474 173.537 27.46 173.733 27.446C173.929 27.418 174.104 27.397 174.258 27.383C174.426 27.355 174.545 27.327 174.615 27.299V18.08H176.568V28.685ZM183.964 17.849C184.132 17.849 184.321 17.863 184.531 17.891C184.755 17.905 184.972 17.933 185.182 17.975C185.392 18.003 185.581 18.038 185.749 18.08C185.931 18.108 186.064 18.136 186.148 18.164L185.812 19.865C185.658 19.809 185.399 19.746 185.035 19.676C184.685 19.592 184.23 19.55 183.67 19.55C183.306 19.55 182.942 19.592 182.578 19.676C182.228 19.746 181.997 19.795 181.885 19.823V29H179.932V18.542C180.394 18.374 180.968 18.22 181.654 18.08C182.34 17.926 183.11 17.849 183.964 17.849ZM189.986 29H188.033V18.08H189.986V29ZM188.999 16.106C188.649 16.106 188.348 15.994 188.096 15.77C187.858 15.532 187.739 15.217 187.739 14.825C187.739 14.433 187.858 14.125 188.096 13.901C188.348 13.663 188.649 13.544 188.999 13.544C189.349 13.544 189.643 13.663 189.881 13.901C190.133 14.125 190.259 14.433 190.259 14.825C190.259 15.217 190.133 15.532 189.881 15.77C189.643 15.994 189.349 16.106 188.999 16.106ZM195.172 18.08H199.309V19.718H195.172V24.758C195.172 25.304 195.214 25.759 195.298 26.123C195.382 26.473 195.508 26.753 195.676 26.963C195.844 27.159 196.054 27.299 196.306 27.383C196.558 27.467 196.852 27.509 197.188 27.509C197.776 27.509 198.245 27.446 198.595 27.32C198.959 27.18 199.211 27.082 199.351 27.026L199.729 28.643C199.533 28.741 199.19 28.86 198.7 29C198.21 29.154 197.65 29.231 197.02 29.231C196.278 29.231 195.662 29.14 195.172 28.958C194.696 28.762 194.311 28.475 194.017 28.097C193.723 27.719 193.513 27.257 193.387 26.711C193.275 26.151 193.219 25.507 193.219 24.779V15.035L195.172 14.699V18.08ZM200.513 31.037C200.667 31.107 200.863 31.17 201.101 31.226C201.353 31.296 201.598 31.331 201.836 31.331C202.606 31.331 203.208 31.156 203.642 30.806C204.076 30.47 204.468 29.917 204.818 29.147C203.936 27.467 203.11 25.689 202.34 23.813C201.584 21.923 200.954 20.012 200.45 18.08H202.55C202.704 18.71 202.886 19.389 203.096 20.117C203.32 20.845 203.565 21.594 203.831 22.364C204.097 23.134 204.384 23.904 204.692 24.674C205 25.444 205.322 26.186 205.658 26.9C206.19 25.43 206.652 23.974 207.044 22.532C207.436 21.09 207.807 19.606 208.157 18.08H210.173C209.669 20.138 209.109 22.119 208.493 24.023C207.877 25.913 207.212 27.684 206.498 29.336C206.218 29.966 205.924 30.505 205.616 30.953C205.322 31.415 204.993 31.793 204.629 32.087C204.265 32.381 203.852 32.598 203.39 32.738C202.942 32.878 202.431 32.948 201.857 32.948C201.703 32.948 201.542 32.934 201.374 32.906C201.206 32.892 201.038 32.864 200.87 32.822C200.716 32.794 200.569 32.759 200.429 32.717C200.303 32.675 200.212 32.64 200.156 32.612L200.513 31.037Z" fill="#00FF47" fill-opacity="0.6"/>
</g>
<defs>
<clipPath id="clip0_45_6">
<rect width="215" height="46" fill="white"/>
</clipPath>
</defs>
</svg>
