<svg width="79" height="67" viewBox="0 0 79 67" fill="none" xmlns="http://www.w3.org/2000/svg">
<g clip-path="url(#clip0_1_45)">
<path d="M37.91 47.4801L31.1538 40.417L53.5679 20.7687L57.5616 25.0661L37.91 47.4801ZM67.0771 67.4386C74.1403 60.3754 78.7445 50.5497 78.7445 39.4961C78.7445 17.6992 60.938 -0.110596 39.1378 -0.110596C17.3377 -0.110596 -0.468842 17.6992 -0.468842 39.4961C-0.468842 50.553 3.82848 60.3754 11.1986 67.4386L16.7238 61.9102C10.8917 56.0781 7.51521 48.401 7.51521 39.4994C7.50869 35.3445 8.32214 31.2292 9.90893 27.3892C11.4957 23.5493 13.8247 20.0602 16.7623 17.1219C19.7 14.1837 23.1886 11.854 27.0282 10.2664C30.8678 8.67881 34.983 7.8645 39.1378 7.87015C43.2922 7.8645 47.4068 8.67859 51.246 10.2658C55.0852 11.853 58.5735 14.1821 61.511 17.1196C64.4486 20.0572 66.7777 23.5455 68.3649 27.3847C69.952 31.2238 70.7661 35.3385 70.7605 39.4928C70.7605 48.0907 67.0771 56.0748 61.5519 61.9069L67.0771 67.4386Z" fill="white"/>
</g>
<defs>
<clipPath id="clip0_1_45">
<rect width="79" height="67" fill="white"/>
</clipPath>
</defs>
</svg>
