<svg width="99" height="40" viewBox="0 0 99 40" fill="none" xmlns="http://www.w3.org/2000/svg">
<g clip-path="url(#clip0_0_316)">
<path d="M72.0059 11.756C69.7009 11.1503 67.2645 10.8464 64.8114 10.8585C56.878 10.8585 51.2751 13.7406 51.2354 17.8777C51.1859 20.9171 55.217 22.6299 58.2664 23.6454C61.3951 24.6895 62.4413 25.3475 62.4314 26.2807C62.4115 27.7003 59.9324 28.344 57.6267 28.344C54.4584 28.344 52.7279 28.0257 50.0653 27.2283L49.0786 26.8958L47.953 31.6587C49.8818 32.238 53.3576 32.735 56.9474 32.7779C65.3816 32.7779 70.8952 29.9137 70.9597 25.512C71.0291 23.084 68.8474 21.2497 64.256 19.7335C61.4645 18.7502 59.734 18.0923 59.734 17.0946C59.734 16.2114 61.2166 15.2674 64.3155 15.2674C66.378 15.2314 68.4277 15.5105 70.33 16.0863L71.0737 16.3258L72.1993 11.7238L72.0059 11.756ZM92.5929 11.2447H86.395C84.4662 11.2447 83.0134 11.6273 82.1705 13.0075L70.2506 32.4811H78.6848L80.3706 29.288L90.6641 29.2951C90.9071 30.0424 91.6508 32.4811 91.6508 32.4811H99.0883L92.5929 11.2447ZM39.8263 11.0659H47.8638L42.836 32.313H34.8085L39.8263 11.0587V11.0659ZM19.4228 22.7765L20.2558 25.7265L28.1098 11.2447H36.6232L23.9745 32.4525H15.4809L8.53923 14.495C8.4268 14.1989 8.16276 13.9446 7.80044 13.7835C5.29847 12.8514 2.64746 12.1441 -0.0932312 11.6773L0.0158519 11.2304H12.9521C14.7074 11.2804 16.1205 11.6773 16.5916 13.029L19.4178 22.7872L19.4228 22.7765ZM82.6762 24.9434L85.8793 19.0005C85.8397 19.0649 86.5388 17.774 86.9454 16.9766L87.4957 18.811L89.3551 24.9398H82.6713L82.6762 24.9434Z" fill="#0A2CCA"/>
</g>
<defs>
<clipPath id="clip0_0_316">
<rect width="99" height="40" fill="white"/>
</clipPath>
</defs>
</svg>
