<svg width="115" height="46" viewBox="0 0 115 46" fill="none" xmlns="http://www.w3.org/2000/svg">
<g clip-path="url(#clip0_0_419)">
<path d="M1.2952 29.0758C0.753206 27.102 0.477264 25.0518 0.477264 22.9869C0.477264 13.5607 6.39732 4.9418 15.2097 1.54297L16.3651 4.53325C8.77963 7.45955 3.68489 14.8749 3.68489 22.9869C3.68489 24.7663 3.92139 26.5285 4.38701 28.2266L1.2952 29.0758Z" fill="#00A3FF"/>
<path d="M41.1344 13.8809C37.7051 7.29729 30.9547 3.20687 23.522 3.20687C20.8884 3.20687 18.3288 3.71386 15.9194 4.71062L14.69 1.74986C17.4911 0.590671 20.4622 0 23.522 0C32.1569 0 39.9962 4.75 43.9798 12.3992L41.1344 13.8809Z" fill="url(#paint0_linear_0_419)"/>
<path d="M28.5 42.7123H26.185C27.1272 42.7123 24.5277 42.6947 24.1309 42.7123C23.8689 42.7224 23.6043 42.7299 23.3374 42.7299C14.1991 42.7249 6.11409 36.112 4.11058 27L1 27.7208C2.12422 32.8318 4.94579 37.4707 8.94544 40.786C12.9917 44.1389 18.0885 45.9899 23.3031 46C23.3104 46 23.3495 46 23.3495 46C23.6558 46 23.9594 45.9925 24.2632 45.98C25.8993 45.9096 29.8755 46.5597 30.5 45V42.7123H28.5Z" fill="url(#paint1_linear_0_419)"/>
<path d="M29.8295 30H24.9908V16.9091H29.8232C31.157 16.9091 32.3054 17.1712 33.2685 17.6953C34.2358 18.2152 34.9815 18.9652 35.5057 19.9453C36.0298 20.9212 36.2919 22.0888 36.2919 23.4482C36.2919 24.8118 36.0298 25.9837 35.5057 26.9638C34.9858 27.9439 34.2422 28.696 33.2749 29.2202C32.3075 29.7401 31.1591 30 29.8295 30ZM28.1548 27.3026H29.7081C30.4411 27.3026 31.0611 27.179 31.5682 26.9318C32.0795 26.6804 32.4652 26.2734 32.7251 25.7109C32.9893 25.1442 33.1214 24.3899 33.1214 23.4482C33.1214 22.5064 32.9893 21.7564 32.7251 21.1982C32.4609 20.6357 32.071 20.2308 31.5554 19.9837C31.044 19.7322 30.4134 19.6065 29.6634 19.6065H28.1548V27.3026ZM40.907 30.1662C40.2805 30.1662 39.7244 30.0618 39.2386 29.853C38.7571 29.6399 38.3757 29.3203 38.0945 28.8942C37.8175 28.4638 37.679 27.9247 37.679 27.277C37.679 26.7315 37.7749 26.2713 37.9666 25.8963C38.1584 25.5213 38.4226 25.2166 38.7592 24.9822C39.0959 24.7479 39.4837 24.571 39.9226 24.4517C40.3615 24.3281 40.8303 24.245 41.3288 24.2024C41.8871 24.1513 42.3366 24.098 42.6776 24.0426C43.0185 23.983 43.2656 23.8999 43.419 23.7933C43.5767 23.6825 43.6555 23.527 43.6555 23.3267V23.2947C43.6555 22.9666 43.5426 22.7131 43.3168 22.5341C43.0909 22.3551 42.7862 22.2656 42.4027 22.2656C41.9893 22.2656 41.657 22.3551 41.4055 22.5341C41.1541 22.7131 40.9943 22.9602 40.9261 23.2756L38.0433 23.1733C38.1286 22.5767 38.348 22.044 38.7017 21.5753C39.0597 21.1023 39.5497 20.7315 40.1719 20.4631C40.7983 20.1903 41.5504 20.054 42.4283 20.054C43.0547 20.054 43.6321 20.1286 44.1605 20.2777C44.6889 20.4226 45.1491 20.6357 45.5412 20.9169C45.9332 21.1939 46.2358 21.5348 46.4489 21.9396C46.6662 22.3445 46.7749 22.8068 46.7749 23.3267V30H43.8345V28.6321H43.7578C43.5831 28.9645 43.3594 29.2457 43.0866 29.4759C42.8182 29.706 42.5007 29.8786 42.1342 29.9936C41.772 30.1087 41.3629 30.1662 40.907 30.1662ZM41.8722 28.1207C42.2088 28.1207 42.5114 28.0526 42.7798 27.9162C43.0526 27.7798 43.2699 27.5923 43.4318 27.3537C43.5938 27.1108 43.6747 26.8295 43.6747 26.5099V25.5767C43.5852 25.6236 43.4766 25.6662 43.3487 25.7045C43.2251 25.7429 43.0888 25.7791 42.9396 25.8132C42.7905 25.8473 42.6371 25.8771 42.4794 25.9027C42.3217 25.9283 42.1705 25.9517 42.0256 25.973C41.7315 26.0199 41.4801 26.0923 41.2713 26.1903C41.0668 26.2884 40.9091 26.4162 40.7983 26.5739C40.6918 26.7273 40.6385 26.9105 40.6385 27.1236C40.6385 27.4474 40.7536 27.6946 40.9837 27.8651C41.218 28.0355 41.5142 28.1207 41.8722 28.1207ZM57.2578 23.1797L54.3878 23.2564C54.358 23.0518 54.277 22.8707 54.1449 22.7131C54.0128 22.5511 53.8402 22.4254 53.6271 22.3359C53.4183 22.2422 53.1754 22.1953 52.8984 22.1953C52.5362 22.1953 52.2273 22.2678 51.9716 22.4126C51.7202 22.5575 51.5966 22.7536 51.6009 23.0007C51.5966 23.1925 51.6733 23.3587 51.831 23.4993C51.9929 23.6399 52.2805 23.7528 52.6939 23.8381L54.5859 24.196C55.5661 24.3835 56.2947 24.6946 56.772 25.1293C57.2536 25.5639 57.4964 26.1392 57.5007 26.8551C57.4964 27.5284 57.2962 28.1143 56.8999 28.6129C56.5078 29.1115 55.9709 29.4993 55.2891 29.7763C54.6072 30.049 53.8274 30.1854 52.9496 30.1854C51.5476 30.1854 50.4418 29.8977 49.6321 29.3224C48.8267 28.7429 48.3665 27.9673 48.2514 26.9957L51.3388 26.919C51.407 27.277 51.5838 27.5497 51.8693 27.7372C52.1548 27.9247 52.5192 28.0185 52.9624 28.0185C53.3629 28.0185 53.6889 27.9439 53.9403 27.7947C54.1918 27.6456 54.3196 27.4474 54.3239 27.2003C54.3196 26.9787 54.2216 26.8018 54.0298 26.6697C53.8381 26.5334 53.5376 26.4268 53.1286 26.3501L51.4155 26.0241C50.4311 25.8452 49.6982 25.5149 49.2166 25.0334C48.7351 24.5476 48.4964 23.9297 48.5007 23.1797C48.4964 22.5234 48.6712 21.9631 49.0249 21.4986C49.3786 21.0298 49.8814 20.6719 50.5334 20.4247C51.1854 20.1776 51.9545 20.054 52.8409 20.054C54.1705 20.054 55.2188 20.3331 55.9858 20.8913C56.7528 21.4453 57.1768 22.2081 57.2578 23.1797ZM62.1653 24.4006V30H59.0396V16.9091H62.063V21.9844H62.1717C62.3933 21.3793 62.7555 20.9062 63.2583 20.5653C63.7654 20.2244 64.3855 20.054 65.1184 20.054C65.8088 20.054 66.4096 20.2074 66.921 20.5142C67.4324 20.8168 67.8287 21.245 68.1099 21.799C68.3954 22.353 68.536 23.0007 68.5318 23.7422V30H65.4061V24.3558C65.4103 23.8104 65.274 23.3842 64.997 23.0774C64.72 22.7706 64.3301 22.6172 63.8272 22.6172C63.4991 22.6172 63.2093 22.6896 62.9579 22.8345C62.7108 22.9751 62.5169 23.1776 62.3762 23.4418C62.2399 23.706 62.1696 24.0256 62.1653 24.4006ZM82.3658 21.652H79.1697C79.1271 21.3239 79.0398 21.0277 78.9077 20.7635C78.7756 20.4993 78.6009 20.2734 78.3835 20.0859C78.1662 19.8984 77.9084 19.7557 77.6101 19.6577C77.3161 19.5554 76.9901 19.5043 76.6321 19.5043C75.9972 19.5043 75.4496 19.6598 74.9893 19.9709C74.5334 20.282 74.1818 20.7315 73.9347 21.3196C73.6918 21.9077 73.5703 22.6193 73.5703 23.4545C73.5703 24.3239 73.6939 25.0526 73.9411 25.6406C74.1925 26.2244 74.544 26.6655 74.9957 26.9638C75.4517 27.2578 75.9908 27.4048 76.6129 27.4048C76.9624 27.4048 77.2798 27.3601 77.5653 27.2706C77.8551 27.1811 78.1087 27.0511 78.326 26.8807C78.5476 26.706 78.7287 26.495 78.8693 26.2479C79.0142 25.9964 79.1143 25.7131 79.1697 25.3977L82.3658 25.4169C82.3104 25.9964 82.142 26.5675 81.8608 27.13C81.5838 27.6925 81.2024 28.206 80.7166 28.6705C80.2308 29.1307 79.6385 29.4972 78.9396 29.7699C78.245 30.0426 77.4482 30.179 76.549 30.179C75.3643 30.179 74.3033 29.919 73.3658 29.3991C72.4325 28.875 71.6953 28.1122 71.1541 27.1108C70.6129 26.1094 70.3423 24.8906 70.3423 23.4545C70.3423 22.0142 70.6172 20.7933 71.1669 19.7919C71.7166 18.7905 72.4602 18.0298 73.3977 17.5099C74.3352 16.9901 75.3857 16.7301 76.549 16.7301C77.3416 16.7301 78.0746 16.8409 78.7479 17.0625C79.4212 17.2798 80.0135 17.5994 80.5249 18.0213C81.0362 18.4389 81.4517 18.9524 81.7713 19.5618C82.0909 20.1712 82.2891 20.8679 82.3658 21.652ZM84.1763 30V20.1818H87.2125V21.9716H87.3148C87.4938 21.3239 87.7857 20.8423 88.1905 20.527C88.5953 20.2074 89.0662 20.0476 89.6032 20.0476C89.748 20.0476 89.8972 20.0582 90.0506 20.0795C90.204 20.0966 90.3468 20.1243 90.4789 20.1626V22.8793C90.3297 22.8281 90.1337 22.7876 89.8908 22.7578C89.6522 22.728 89.4391 22.7131 89.2516 22.7131C88.8809 22.7131 88.5463 22.7962 88.248 22.9624C87.954 23.1243 87.7218 23.3523 87.5513 23.6463C87.3851 23.9361 87.302 24.277 87.302 24.669V30H84.1763ZM94.1511 30.1662C93.5247 30.1662 92.9686 30.0618 92.4828 29.853C92.0012 29.6399 91.6199 29.3203 91.3386 28.8942C91.0616 28.4638 90.9231 27.9247 90.9231 27.277C90.9231 26.7315 91.019 26.2713 91.2108 25.8963C91.4025 25.5213 91.6667 25.2166 92.0034 24.9822C92.34 24.7479 92.7278 24.571 93.1667 24.4517C93.6056 24.3281 94.0744 24.245 94.573 24.2024C95.1312 24.1513 95.5808 24.098 95.9217 24.0426C96.2626 23.983 96.5098 23.8999 96.6632 23.7933C96.8208 23.6825 96.8997 23.527 96.8997 23.3267V23.2947C96.8997 22.9666 96.7868 22.7131 96.5609 22.5341C96.335 22.3551 96.0304 22.2656 95.6468 22.2656C95.2335 22.2656 94.9011 22.3551 94.6497 22.5341C94.3983 22.7131 94.2385 22.9602 94.1703 23.2756L91.2875 23.1733C91.3727 22.5767 91.5922 22.044 91.9458 21.5753C92.3038 21.1023 92.7939 20.7315 93.416 20.4631C94.0424 20.1903 94.7946 20.054 95.6724 20.054C96.2988 20.054 96.8762 20.1286 97.4047 20.2777C97.9331 20.4226 98.3933 20.6357 98.7853 20.9169C99.1774 21.1939 99.4799 21.5348 99.693 21.9396C99.9103 22.3445 100.019 22.8068 100.019 23.3267V30H97.0787V28.6321H97.002C96.8272 28.9645 96.6035 29.2457 96.3308 29.4759C96.0623 29.706 95.7449 29.8786 95.3784 29.9936C95.0162 30.1087 94.6071 30.1662 94.1511 30.1662ZM95.1163 28.1207C95.4529 28.1207 95.7555 28.0526 96.024 27.9162C96.2967 27.7798 96.514 27.5923 96.676 27.3537C96.8379 27.1108 96.9189 26.8295 96.9189 26.5099V25.5767C96.8294 25.6236 96.7207 25.6662 96.5929 25.7045C96.4693 25.7429 96.3329 25.7791 96.1838 25.8132C96.0346 25.8473 95.8812 25.8771 95.7235 25.9027C95.5659 25.9283 95.4146 25.9517 95.2697 25.973C94.9757 26.0199 94.7243 26.0923 94.5154 26.1903C94.3109 26.2884 94.1532 26.4162 94.0424 26.5739C93.9359 26.7273 93.8826 26.9105 93.8826 27.1236C93.8826 27.4474 93.9977 27.6946 94.2278 27.8651C94.4622 28.0355 94.7583 28.1207 95.1163 28.1207ZM107.51 20.1818V22.483H101.195V20.1818H107.51ZM102.512 30V19.6832C102.512 18.9247 102.655 18.2962 102.94 17.7976C103.226 17.2947 103.622 16.9197 104.129 16.6726C104.636 16.4212 105.222 16.2955 105.887 16.2955C106.322 16.2955 106.731 16.3295 107.114 16.3977C107.502 16.4616 107.79 16.5192 107.977 16.5703L107.479 18.8587C107.363 18.8203 107.223 18.7884 107.057 18.7628C106.895 18.7372 106.741 18.7244 106.596 18.7244C106.23 18.7244 105.979 18.8054 105.842 18.9673C105.706 19.1293 105.638 19.3509 105.638 19.6321V30H102.512ZM114.556 20.1818V22.483H108.362V20.1818H114.556ZM109.66 17.8295H112.786V26.9126C112.786 27.1044 112.815 27.2599 112.875 27.3793C112.939 27.4943 113.031 27.5774 113.15 27.6286C113.269 27.6754 113.412 27.6989 113.578 27.6989C113.697 27.6989 113.823 27.6882 113.955 27.6669C114.092 27.6413 114.194 27.62 114.262 27.603L114.735 29.8594C114.586 29.902 114.375 29.9553 114.102 30.0192C113.834 30.0831 113.512 30.1236 113.137 30.1406C112.404 30.1747 111.776 30.0895 111.251 29.8849C110.732 29.6761 110.333 29.3523 110.056 28.9134C109.783 28.4744 109.651 27.9226 109.66 27.2578V17.8295Z" fill="white"/>
</g>
<defs>
<linearGradient id="paint0_linear_0_419" x1="21.1241" y1="-1.48395" x2="38.6172" y2="17.2129" gradientUnits="userSpaceOnUse">
<stop offset="0.0939" stop-color="#58A7CF"/>
<stop offset="0.9883" stop-color="#58A7CF" stop-opacity="0"/>
</linearGradient>
<linearGradient id="paint1_linear_0_419" x1="0.197937" y1="33.2175" x2="33.5356" y2="41.8621" gradientUnits="userSpaceOnUse">
<stop offset="0.0774" stop-color="#58A7CF"/>
<stop offset="0.7617" stop-color="#1B1E2E"/>
</linearGradient>
<clipPath id="clip0_0_419">
<rect width="114.929" height="45.9717" fill="white"/>
</clipPath>
</defs>
</svg>
